<svg xmlns="http://www.w3.org/2000/svg" xml:space="preserve" id="ad" x="0" y="0" style="enable-background:new 0 0 40.2 29.4" version="1.1" viewBox="0 0 40.2 29.4"><style>.st0{fill:#ea5d7b}.st1{fill:#503e90}</style><path d="M36.6 5c-.4-1.1-1.2-1.9-2.2-2.4 1.1-.4 1.9-1.2 2.4-2.2.4 1.1 1.2 1.9 2.2 2.5-1 .3-1.9 1.1-2.4 2.1z" class="st0"/><path d="M31.9 3.1c-.1 0-.1-.1-.1-.1-.4-.2-.9-.3-1.5-.3H7.5C5.7 2.7 4.2 4.2 4.2 6v17c0 1.8 1.5 3.3 3.3 3.3h8.4c-.7.7-1.2 1.6-1.2 2.7v.5h10.6V29c0-1.1-.5-2-1.2-2.7h6.2c.2 0 .5 0 .7-.1h-.1.3c.1 0 .2-.1.3-.1h.1c.2-.1.3-.1.4-.2.9-.6 1.6-1.6 1.6-2.8V6c.1-1.2-.6-2.3-1.7-2.9zm-1.5 22.3H7.5c-1.3 0-2.4-1.1-2.4-2.4V6c0-1.3 1.1-2.4 2.4-2.4h22.8c1.3 0 2.4 1.1 2.4 2.4v17c0 1.3-1 2.4-2.3 2.4z" class="st1"/><path d="M34.7 5.6v18.2c0 1.6-1 2.6-2.3 2.6l-1.3-.1H31h.3c.1 0 .2-.1.3-.1h.1c.2-.1.3-.1.4-.2.9-.6 1.6-1.6 1.6-2.8V6c0-1.2-.7-2.3-1.7-2.9 0 0-.1 0-.1-.1-.5-.3-1.1-.3-1.1-.3h1.5c1.3 0 2.4 1.3 2.4 2.9z" class="st0"/><path d="M31 26.2h.2-.2z" class="st1"/><path d="M30.4 3.6H7.5C6.2 3.6 5.1 4.7 5.1 6v17c0 1.3 1.1 2.4 2.4 2.4h22.8c1.3 0 2.4-1.1 2.4-2.4V6c0-1.3-1-2.4-2.3-2.4z" style="fill:#e1deef"/><path d="M25.8 6.3H11.9c-1.8 0-3.3 1.5-3.3 3.3v9.9c0 1.8 1.5 3.3 3.3 3.3h13.9c1.8 0 3.3-1.5 3.3-3.3V9.6c0-1.8-1.4-3.3-3.3-3.3zm2.4 13.2c0 1.3-1.1 2.4-2.4 2.4H11.9c-1.3 0-2.4-1.1-2.4-2.4V9.6c0-1.3 1.1-2.4 2.4-2.4h13.9c1.3 0 2.4 1.1 2.4 2.4v9.9z" class="st1"/><path d="M25.8 7.2H11.9c-1.3 0-2.4 1.1-2.4 2.4v9.9c0 1.3 1.1 2.4 2.4 2.4h13.9c1.3 0 2.4-1.1 2.4-2.4V9.6c0-1.3-1-2.4-2.4-2.4z" style="fill:#fff"/><path d="m16.9 17.8-.4-1.1h-2.7l-.3 1.1h-2.2l2.5-8h2.6l2.6 8h-2.1zm-2.5-2.9H16l-.8-2.7-.8 2.7zm8.4-5c1.1 0 2 .4 2.8 1.1.7.8 1.1 1.7 1.1 2.8s-.4 2.1-1.1 2.8c-.7.8-1.7 1.1-2.8 1.1h-3.2v-8h3.2zm0 6c.6 0 1-.2 1.4-.6.3-.4.5-.9.5-1.5s-.2-1.1-.5-1.5c-.3-.4-.8-.6-1.4-.6h-1.1v4h1.1z" class="st1"/></svg>