<svg xmlns="http://www.w3.org/2000/svg" xml:space="preserve" id="auditing" x="0" y="0" style="enable-background:new 0 0 40.2 29.4" version="1.1" viewBox="0 0 40.2 29.4"><style>.st0{fill:#ea5d7b}.st1{fill:#503e90}</style><path d="M37.7 6.7c-.3-.7-.8-1.3-1.5-1.7.7-.3 1.3-.8 1.7-1.5.3.7.8 1.3 1.5 1.7-.7.3-1.3.9-1.7 1.5zm-4.6 1.8c-.5-.1-1 .2-1.4.5-.8.5-1.9.3-2.7-.1-1.6-.8-3.5-1.3-5.1-.2.9-1.2 2.7-1.4 4.1-1 1.2.3 2.5 1.4 3.8.8.4-.2.9-.2 1.3 0z" class="st0"/><path d="M33.1 9.7c-.5-.1-1 .2-1.4.5-.8.5-1.9.3-2.7-.1-1.5-.8-3.5-1.3-5-.1.9-1.2 2.7-1.4 4.1-1 1.2.3 2.5 1.4 3.8.8.3-.3.8-.3 1.2-.1zm0 3.9c-.5-.1-1 .2-1.4.5-.8.5-1.9.3-2.7-.1-1.6-.8-3.5-1.3-5.1-.2.9-1.2 2.7-1.4 4.1-1 1.2.3 2.5 1.4 3.8.8.4-.1.9-.2 1.3 0z" class="st0"/><path d="M33.1 14.8c-.5-.1-1 .2-1.4.5-.8.5-1.9.3-2.7-.1-1.6-.8-3.5-1.3-5.1-.2.9-1.2 2.7-1.4 4.1-1 1.2.3 2.5 1.4 3.8.8.4-.1.9-.2 1.3 0zm0 3.7c-.5-.1-1 .2-1.4.5-.8.5-1.9.3-2.7-.1-1.6-.8-3.5-1.3-5.1-.2.9-1.2 2.7-1.4 4.1-1 1.2.3 2.5 1.4 3.8.8.4-.1.9-.2 1.3 0z" class="st0"/><path d="M33.1 19.7c-.5-.1-1 .2-1.4.5-.8.5-1.9.3-2.7-.1-1.6-.8-3.5-1.3-5.1-.2.9-1.2 2.7-1.4 4.1-1 1.2.3 2.5 1.4 3.8.8.4-.1.9-.2 1.3 0z" class="st0"/><path d="M17.8 22.9v-6.1 6.1c0 .1 0 .2.1.4 0-.1-.1-.3-.1-.4zm0-18.8V13 4.1c0-.1 0-.2.1-.4 0 .1-.1.2-.1.4zm15.1 20.5c-1.1.1-5.9.1-8.5.1h-.1 8.2c.3 0 .7-.1 1-.2-.1.1-.3.1-.6.1zm1.5-.8c.2-.3.3-.5.3-.9l-.3.9zM21.9 7.4h-1.3c-.6 0-1.1.5-1.1 1.1v1.3c0 .6.5 1.1 1.1 1.1h1.3c.6 0 1.1-.5 1.1-1.1V8.6c0-.7-.5-1.2-1.1-1.2zm0 5h-1.3c-.6 0-1.1.5-1.1 1.1v1.3c0 .6.5 1.1 1.1 1.1h1.3c.6 0 1.1-.5 1.1-1.1v-1.3c0-.6-.5-1.1-1.1-1.1zm0 4.8h-1.3c-.6 0-1.1.5-1.1 1.1v1.3c0 .6.5 1.1 1.1 1.1h1.3c.6 0 1.1-.5 1.1-1.1v-1.3c0-.6-.5-1.1-1.1-1.1zM4.3 14.3v.2c0-.4.1-.9.2-1.3-.2.5-.2.7-.2 1.1zm0 .7v-.2.2z" class="st1"/><path d="M17.2 13.6c-.6-2.9-3.3-5.1-6.4-5.1-3 0-5.6 2.1-6.3 4.8-.1.4-.2.8-.2 1.3v.6c0 3.6 2.9 6.5 6.5 6.5 3.1 0 5.7-2.2 6.4-5.1.1-.4.2-.9.2-1.4-.1-.7-.1-1.2-.2-1.6zm-6.4-4.5c3.1 0 5.7 2.4 5.9 5.5l-7-5.4c.3-.1.7-.1 1.1-.1zM9 9.6c.1 0 .1 0 0 0l7.3 5.6c0 .7-.2 1.4-.4 2l-8.7-6.7c.6-.4 1.2-.7 1.8-.9zm-3.8 3.7 8.7 6.5c-.5.3-.5.3-1 .4-.1 0-.2.1-.3.1l-7.7-5.6v-.3c0-.4 0-.5.2-.9 0-.1.1-.1.1-.2zm5.6 7.5c-3 0-5.6-2.3-5.9-5.3l7.1 5.2c-.4.1-.8.1-1.2.1zm3.8-1.4-9.2-6.8c.3-.7.7-1.3 1.2-1.8l9.3 7.1c-.4.6-.8 1.1-1.3 1.5z" class="st1"/><path d="M4.9 14.3v.2c0-.4.1-.8.2-1.1-.2.4-.2.5-.2.9z" class="st1"/><path d="m33.8 3.4-.2-.2c-.1-.1-.3-.2-.5-.3-.2-.1-.4-.1-.6-.1H19.3c-.2 0-.4 0-.6.1-.1 0-.1.1-.2.1-.2.1-.3.2-.4.3-.1.1-.2.2-.2.3 0 .1-.1.2-.1.4v18.8c0 .1 0 .2.1.4 0 .1.1.2.2.3.3.3.7.5 1.2.5h13.2c.8 0 1.5-.5 1.5-1.2V4.1c0-.3-.1-.5-.2-.7zM23 19.6c0 .6-.5 1.1-1.1 1.1h-1.3c-.6 0-1.1-.5-1.1-1.1v-1.3c0-.6.5-1.1 1.1-1.1h1.3c.6 0 1.1.5 1.1 1.1v1.3zm0-4.8c0 .6-.5 1.1-1.1 1.1h-1.3c-.6 0-1.1-.5-1.1-1.1v-1.3c0-.6.5-1.1 1.1-1.1h1.3c.6 0 1.1.5 1.1 1.1v1.3zm0-4.9c0 .6-.5 1.1-1.1 1.1h-1.3c-.6 0-1.1-.5-1.1-1.1V8.6c0-.6.5-1.1 1.1-1.1h1.3c.6 0 1.1.5 1.1 1.1v1.3z" style="fill:#e1deef"/><path d="M2.9 26.4c-.4 0-.9-.2-1.3-.5l-.1-.1c-.7-.8-.6-1.9.1-2.7l1.3-1.3c.7-.8 1.9-.8 2.7-.2l.1.1c.7.8.6 1.9-.1 2.7l-1.3 1.3c-.3.5-.9.7-1.4.7zm7.9-18.8c-.9 0-1.8.2-2.7.6.9-.4 1.8-.5 2.7-.6 1.4 0 2.7.4 3.8 1-1.1-.6-2.4-1-3.8-1zm7 5.4zm0 3.9s0 .1 0 0z" class="st1"/><path d="M32.5 2.3H19.3c-1.2 0-2.1.8-2.1 1.8v6.2c-1.4-2-3.8-3.2-6.4-3.2-4.4 0-7.9 3.6-7.9 7.9 0 4.4 3.6 7.9 7.9 7.9 2.6 0 4.9-1.3 6.4-3.2v3.2c0 1 1 1.8 2.1 1.8h5.1c2.6 0 7.4 0 8.5-.1.3 0 .5-.1.7-.1.3-.2.6-.4.8-.7l.3-.9V4.1c0-1-1-1.8-2.2-1.8zM34 22.9c0 .7-.7 1.2-1.5 1.2H19.3c-.5 0-1-.2-1.2-.5-.1-.1-.2-.2-.2-.3-.1-.1-.1-.2-.1-.4v-6 .1c-.1.2-.1.4-.2.5-.1.2-.1.3-.2.5-.1.1-.1.2-.2.4-1.2 2.2-3.6 3.8-6.4 3.8-4 0-7.3-3.3-7.3-7.3 0-2.5 1.3-4.7 3.2-6 .2-.1.3-.2.5-.3.3-.2.6-.3 1-.5.8-.3 1.7-.5 2.6-.5 1.4 0 2.7.4 3.8 1 1.1.7 2 1.6 2.6 2.7.1.1.1.3.2.4.1.2.2.3.2.5.1.2.1.4.2.5v.1-8.7c0-.1 0-.3.1-.4 0-.1.1-.2.2-.3.1-.1.2-.2.4-.3 0-.1.1-.1.2-.1.2-.1.4-.1.6-.1h13.2c.2 0 .4 0 .6.1.2.1.3.1.5.3l.2.2c.1.1.2.3.2.6v18.8z" class="st1"/><path d="M17.8 13v-.1c-.1-.2-.1-.4-.2-.5-.1-.2-.1-.3-.2-.5-.1-.1-.1-.3-.2-.4-.6-1.1-1.5-2.1-2.6-2.7-1.1-.7-2.4-1-3.8-1-.9-.2-1.8 0-2.7.4-.3.1-.7.3-1 .5-.1 0-.2.1-.4.2-1.9 1.3-3.2 3.5-3.2 6 0 4 3.3 7.3 7.3 7.3 2.7 0 5.1-1.5 6.4-3.8.1-.1.1-.2.2-.4s.2-.3.2-.5c.1-.2.1-.4.2-.5v-4zm-.6 3.3c-.6 2.9-3.2 5.2-6.4 5.2-3.6 0-6.5-2.9-6.5-6.5v-.8c0-.5 0-.6.2-1.1.8-2.8 3.3-4.8 6.3-4.8 3.1 0 5.7 2.2 6.4 5.2.1.4.2.9.2 1.4-.1.5-.1 1-.2 1.4z" style="fill:#b5abd4"/><path d="M36.7 7.1v17.6c0 1-.8 1.7-1.7 1.7H22.7c0-.9.7-1.7 1.6-1.7h.1c2.6 0 7.4 0 8.5-.1.3 0 .5-.1.7-.1.4-.1.6-.4.8-.7l.3-.9V5.6h.6c.8 0 1.4.7 1.4 1.5z" class="st0"/><path d="M31.8 20.2c-.8.5-1.9.3-2.7-.1-1.6-.8-3.5-1.3-5.1-.2.9-1.2 2.7-1.4 4.1-1 1.2.3 2.5 1.4 3.8.8.4-.2.9-.3 1.3-.1-.6 0-1 .3-1.4.6z" class="st1"/><path d="M31.8 19c-.8.5-1.9.3-2.7-.1-1.6-.8-3.5-1.3-5.1-.2.9-1.2 2.7-1.4 4.1-1 1.2.3 2.5 1.4 3.8.8.4-.2.9-.3 1.3-.1-.6.1-1 .3-1.4.6zm0-3.7c-.8.5-1.9.3-2.7-.1-1.6-.8-3.5-1.3-5.1-.2.9-1.2 2.7-1.4 4.1-1 1.2.3 2.5 1.4 3.8.8.4-.2.9-.3 1.3-.1-.6 0-1 .3-1.4.6z" class="st1"/><path d="M31.8 14.1c-.8.5-1.9.3-2.7-.1-1.6-.8-3.5-1.3-5.1-.2.9-1.2 2.7-1.4 4.1-1 1.2.3 2.5 1.4 3.8.8.4-.2.9-.3 1.3-.1-.6 0-1 .3-1.4.6zm0-3.9c-.8.5-1.9.3-2.7-.1-1.6-.8-3.6-1.3-5.1-.1.9-1.2 2.7-1.4 4.1-1 1.2.3 2.5 1.4 3.8.8.4-.2.9-.3 1.3-.1-.6-.1-1 .2-1.4.5z" class="st1"/><path d="M31.8 9c-.8.5-1.9.3-2.7-.1-1.6-.8-3.5-1.3-5.1-.2.9-1.2 2.7-1.4 4.1-1 1.2.3 2.5 1.4 3.8.8.4-.2.9-.3 1.3-.1-.6 0-1 .3-1.4.6z" class="st1"/></svg>