<svg xmlns="http://www.w3.org/2000/svg" xml:space="preserve" id="increase" x="0" y="0" style="enable-background:new 0 0 40.2 29.4" version="1.1" viewBox="0 0 40.2 29.4"><style>.st0{fill:#ea5d7b}.st1{fill:#503e90}</style><path d="M36.7 15.4c-.5-1.1-1.4-2.1-2.5-2.6 1.1-.5 2.1-1.4 2.6-2.5.5 1.1 1.4 2.1 2.5 2.6-1.2.5-2.1 1.4-2.6 2.5z" class="st0"/><path d="M13.5 13.8c.1-.1.2-.2.4-.2-.2 0-.3.1-.4.2zm4.2-.3v.8h1v-.8h-1zm4.1.7h1-1zm3.7 12.3h.4-.4zm-2.7-12.3h-1z" class="st1"/><path d="M18.7 4.8v9.4h-1V5.1c.2-.1.6-.2 1-.3zm4.1-1.3v1c-.3-.1-.7-.2-1-.3v-.7c0-.4-.2-.8-.5-1.1-.3-.3-.7-.5-1.1-.5-.9 0-1.6.7-1.6 1.6v.7c-.4.1-.7.1-1 .2v-.9c0-1.4 1.2-2.6 2.6-2.6.7 0 1.3.3 1.8.8.6.4.8 1.1.8 1.8zm0 1.6v7.7h-1v-8c.3.1.7.2 1 .3zm-8.4 7c-.4-.2-.8-.4-1.2-.7 0 0 .1 0 .1.1.4.2.8.4 1.1.6zm15 5.7-.3.9.3-.9zM7.9 26.3c-.1 0-.1 0 0 0-.1 0-.1 0 0 0zm.3.9c-.2 0-.3-.1-.5-.1.2 0 .4 0 .5.1zm9.5-22.1h-.1.1zm0-.7z" class="st1"/><path d="M37.5 19.9v-.6c0-.1 0-.3-.1-.4 0-.1 0-.2-.1-.3v-.2c-.8-3.2-3.7-5.5-7-5.6 0-.1 0-.2-.1-.4-.7-3.6-3.3-6.6-6.7-7.8-.2-.1-.5-.2-.7-.3-.3-.1-.7-.2-1-.3-1.2-.2-2.3-.2-3.1 0-.4.1-.7.1-1 .2h-.2c-2.9.7-5.3 2.6-6.7 5.1-.5-.1-1-.1-1.5-.1-1.1 0-2.1.2-3.1.6a8.9 8.9 0 0 0-5.7 8.3c0 3.4 1.9 6.4 4.9 7.9.4.2.7.3 1.1.5l1.2.3c.1 0 .1 0 .2.1.2 0 .4.1.5.1h24.2c.2 0 .3 0 .5-.1.3 0 .6-.1.8-.3 1.1-.6 1.9-1.5 2.5-2.5V24a8.017 8.017 0 0 0 1.1-4.1zm-1.4 3.5c-.1.3-.3.5-.4.8-.2.2-.3.5-.5.7l-.3.3c-.4.4-.9.8-1.4 1.1 0 0-.1 0-.1.1-.2.1-.4.1-.7.1h-6.3c.2-.3.4-.7.4-1V14.4s0-.1-.1-.1c0 0 0-.1-.1-.1l-.1-.1-.3-.3c-.1 0-.1-.1-.2-.1 0 0-.1 0-.1-.1h-7.2v.8h6.8c.3 0 .6.2.6.6v10.4c0 .3-.2.6-.6.6H14.4c-.3 0-.6-.2-.6-.6V14.8c0-.3.2-.6.6-.6h3.3v-.8h-3.6c-.1 0-.1 0-.2.1s-.3.1-.4.2l-.1.1-.1.1c-.1.1-.1.1-.1.2v11.1c.1.3.2.7.4 1H8.3c-.1 0-.2 0-.3-.1h-.3c-.4-.1-.7-.2-1-.3-.2-.1-.4-.1-.6-.2l-.6-.3c-.1-.1-.3-.1-.4-.2l-.9-.6c-.2-.1-.4-.3-.5-.4-.1 0-.2-.1-.2-.1-.1-.1-.2-.2-.2-.3-.2-.3-.5-.6-.7-.9-.3-.4-.6-.8-.8-1.2-.4-1-.7-2.1-.7-3.3 0-.7.1-1.4.3-2.1.1-.3.2-.5.3-.8.1-.1.1-.3.2-.4.1-.3.3-.5.4-.8.1-.2.2-.3.3-.5.9-1.3 2.2-2.4 3.8-3 .9-.3 1.9-.5 2.9-.5.4 0 .8 0 1.2.1.1 0 .3 0 .4.1.6.1 1.1.3 1.6.6.3.1.5.3.8.4 0 0 .1 0 .1.1.4.2.7.4 1.1.6.2.1.3.2.5.2.1.1.2.1.3.2.1.1.3.1.4.2-.2-.3-.5-.6-.8-.9l-.3-.3c-.2-.2-.5-.5-.8-.7-.1-.1-.2-.1-.3-.2l-.1-.1s-.1 0-.1-.1c-.1-.1-.2-.1-.3-.2-.1-.1-.2-.1-.3-.1l-.6-.3c-.1 0-.2-.1-.3-.1-.1 0-.2-.1-.3-.1.1-.1.2-.3.3-.4 0-.1.1-.1.1-.2.1 0 .1-.1.2-.2 0 0 0-.1.1-.1.1-.1.2-.3.3-.4.1-.2.3-.3.4-.4l.3-.3.3-.3c.2-.2.3-.3.5-.4.2-.1.3-.2.5-.4.2-.1.4-.2.5-.3.3-.2.7-.4 1-.5.1 0 .2-.1.2-.1h.1c.1-.1.2-.1.3-.1.3-.1.6-.2.8-.3h.2c.2-.1.5-.2 1-.2.8-.1 1.9-.2 3.1 0 .3.1.7.2 1 .3v.1c.1 0 .3.1.4.1.1.1.3.1.4.2.1.1.3.1.4.2.1.1.3.1.4.2.1.1.3.1.4.2.1.1.3.2.4.3.1.1.2.1.3.2.1.1.2.2.4.3.6.4 1.1 1 1.5 1.5.1.1.2.2.2.3.2.2.3.5.5.7.1.1.1.2.2.4.1.1.1.3.2.4.1.1.1.2.2.4s.1.3.2.5c0 .1.1.2.1.3l.3.9c0 .1.1.3.1.4 0 .2.1.4.1.6v.3h.1v1.7c0 .4-.1.8-.1 1.2-.1.5-.1.9-.3 1.3l-.3.9c-.3.7-.6 1.4-1.1 2.1.3-.2.6-.5.9-.7 1.2-1.3 1.7-3.1 1.6-5v-.4c0-.4-.1-.7-.2-1.1 3.1.1 5.8 2.4 6.4 5.5.5 1.3.3 2.8-.3 4.1zM32 26.5h-.3.3zm.5.7H32h.5z" class="st1"/><path d="M30.6 24.3c.5-.4.9-.9 1.2-1.3 1.1-1.4 1.1-3.2 1.1-4.9 1.7 2.2.6 5.9-2.3 6.2z" class="st1"/><path d="M36.6 19.2c-.6-3.1-3.3-5.4-6.4-5.5.1.4.1.7.2 1.1v.4c.1 1.8-.3 3.7-1.6 5-.3.3-.5.5-.9.7.5-.7.9-1.4 1.1-2.1l.3-.9c.1-.4.2-.9.3-1.3.1-.4.1-.8.1-1.2v-1.7h-.1v-.3c0-.2-.1-.4-.1-.6 0-.1-.1-.3-.1-.4l-.3-.9c0-.1-.1-.2-.1-.3-.1-.2-.1-.3-.2-.5-.1-.1-.1-.2-.2-.4-.1-.1-.1-.3-.2-.4-.1-.1-.1-.2-.2-.4s-.3-.5-.5-.7c-.1-.1-.2-.2-.2-.3-.5-.6-1-1.1-1.5-1.5-.1-.1-.2-.2-.4-.3-.1-.1-.2-.1-.3-.2-.1-.1-.3-.2-.4-.3-.2-.1-.3-.2-.4-.2-.1-.1-.3-.1-.4-.2-.1-.1-.3-.1-.4-.2-.1-.1-.3-.1-.4-.2-.1-.1-.3-.1-.4-.1v7.6h-1v-8c-1.2-.2-2.3-.2-3.1 0v8.6H26c.1 0 .1 0 .1.1.1 0 .1.1.2.1l.3.3.1.1s0 .1.1.1c0 0 0 .1.1.1v11c0 .4-.2.8-.4 1h6.3c.3 0 .5-.1.7-.1 0 0 .1 0 .1-.1.5-.3 1-.7 1.4-1.1l.3-.3c.2-.2.4-.5.5-.7.2-.2.3-.5.4-.8.5-1.1.7-2.6.4-4zm-6 5.1c.5-.4.9-.9 1.2-1.3 1.1-1.4 1.1-3.2 1.1-4.9 1.7 2.2.6 5.9-2.3 6.2zm-13-19.2c-.1 0-.1 0 0 0h-.1c-.3.1-.6.2-.8.3-.1 0-.2.1-.3.1h-.1c-.1 0-.2.1-.2.1-.4.2-.7.3-1 .5-.2.1-.4.2-.5.3-.2.1-.3.2-.5.4l-.3.3-.3.3-.3.3-.4.4c-.1.1-.2.3-.3.4 0 0 0 .1-.1.1-.4.3-.4.4-.5.5-.1.1-.1.1-.1.2-.1.1-.2.3-.3.4.1 0 .2 0 .3.1.1 0 .2.1.3.1l.6.3c.1 0 .2.1.3.1.1 0 .2.1.3.2 0 0 .1 0 .1.1l.1.1c.1.1.2.1.3.2.3.2.5.4.8.7l.3.3c.3.3.6.6.8.9-.1-.1-.3-.1-.4-.2-.1 0-.2-.1-.3-.2-.2-.1-.3-.2-.5-.2-.4-.2-.7-.4-1.1-.6 0 0-.1 0-.1-.1-.3-.2-.5-.3-.8-.4-.5-.3-1.1-.5-1.6-.6-.1 0-.3 0-.4-.1-.4-.1-.8-.1-1.2-.1-1 0-2 .2-2.9.5-1.6.6-2.9 1.7-3.8 3-.1.2-.2.3-.3.5-.2.1-.3.4-.5.7-.1.1-.1.3-.2.4-.1.3-.2.5-.3.8-.2.7-.3 1.4-.3 2.1 0 1.2.2 2.3.7 3.3l.9 1.2c.2.3.4.6.7.9.1.1.2.2.2.3l.2.2c.2.2.3.3.5.4l.9.6c.1.1.2.1.4.2l.6.3c.2.1.4.2.6.2.3.1.7.2 1 .3H8c.1 0 .2.1.3.1h5.3c-.2-.3-.4-.6-.4-1v-11c0-.1.1-.2.1-.2s0-.1.1-.1l.1-.1c.1-.1.2-.2.4-.2.1 0 .1-.1.2-.1h3.6l-.1-8.5zM5.1 17.9c0 .7 0 1.2.1 1.8.2 1.8 1.4 3 2.7 4.2-2.8-.3-4.7-3.7-2.8-6z" style="fill:#e1deef"/><path d="M7.8 23.9c-2.8-.3-4.6-3.7-2.7-6 0 .6 0 1.2.1 1.8.2 1.8 1.4 3.1 2.6 4.2z" class="st1"/><path d="M34.4 28.6H11.6c-4.6-.1-6.4-2.4-6.4-2.4.3.2.7.3 1.1.5.5.2.9.3 1.3.4.2 0 .4.1.5.1.2 0 .3.1.3.1h24.3s.1 0 .1-.1c.3 0 .6-.1.8-.3 1.1-.6 1.9-1.5 2.5-2.5v-.1c.9-1.4 1.1-2.9 1.1-4v-1c0-.1 0-.3-.1-.4 0-.1 0-.2-.1-.3v-.2c4.6 7.2-2.6 10.2-2.6 10.2z" class="st0"/><path d="M20.3 20.5v.9h.6v1h-.6v.6h1v1.1h-1.7v-3.6c-1.1-.1-2-1.1-2-2.3 0-1.3 1.1-2.4 2.4-2.4 1.3 0 2.4 1.1 2.4 2.4-.1 1.2-1 2.2-2.1 2.3z" class="st1"/></svg>