<svg xmlns="http://www.w3.org/2000/svg" xml:space="preserve" id="increase" x="0" y="0" style="enable-background:new 0 0 40.2 29.4" version="1.1" viewBox="0 0 40.2 29.4"><style>.st1{fill:#503e90}</style><path d="M3.4 22.1C2.9 21 2 20.1.9 19.6c1.1-.5 1.9-1.4 2.4-2.4.5 1.1 1.4 2 2.4 2.4-1 .5-1.8 1.4-2.3 2.5zM30.6 8.9c-.4-.9-1.1-1.6-2.1-2.1.9-.4 1.6-1.2 2.1-2.1.4.9 1.1 1.7 2.1 2.1-.9.5-1.6 1.2-2.1 2.1z" style="fill:#ea5d7b"/><path d="m37.5 12.6-.8 1.1c-.2.3-4.7 6.3-13.6 1.2-1.6-1-3.3-1.5-5-1.7-2.5-.3-4.8.1-6.8 1.2-3.4 1.8-5.5 5.4-5.5 9.4V28h31.8V12.8l-.1-.2zM36.6 27H6.8v-3.3c0-3.6 1.9-6.9 5-8.5 1.8-1 3.9-1.3 6.2-1.1 1.5.2 3.1.7 4.6 1.6 7.4 4.3 12.1 1.2 14-.5V27z" class="st1"/><path d="M36.6 15.2V27H6.8v-3.3c0-3.6 1.9-6.9 5-8.5 1.8-1 3.9-1.3 6.2-1.1 1.5.2 3.1.7 4.6 1.6 7.4 4.3 12.1 1.2 14-.5z" style="fill:#e1deef"/><path d="m37.5 12.6.1.2v-.4l-.1.2zM6 14.7v-.2l1.3-5.7 1.9 1.6c-.1.1-.1.2-.2.3.1-.1.1-.2.2-.2 1.8-2.6 5-3.7 8.1-2.9 1.5.4 3 1.1 4.3 2 1.2.9 2.8 2.1 4.2 2.6 6.1 2 9.8-1.4 12.8-6.1-3.5 7.9-9.8 10.4-17.6 4.4-3.7-2.9-7.7-3.2-11.2.4l1.8 1.5-5.4 2.4-.2-.1z" class="st1"/></svg>