<svg xmlns="http://www.w3.org/2000/svg" xml:space="preserve" id="emails" x="0" y="0" style="enable-background:new 0 0 40.2 29.4" version="1.1" viewBox="0 0 40.2 29.4"><style>.emailsst1{fill:#e2ddef}</style><path d="M38 4.5c-.3-.8-1-1.5-1.8-1.9.8-.3 1.5-1 2-1.8.3.8 1 1.5 1.8 1.9-.8.4-1.5 1-2 1.8zm-2.5.7v20.4c0 1.8-1.1 2.9-2.7 2.9l-1.5-.1h.1c.6-.1 1-.3 1.2-.6.8-.6 1.3-1.6 1.3-2.8V5.4c0-1.6-1.1-3-2.6-3.4h1.3c1.6 0 2.9 1.4 2.9 3.2z" style="fill:#ea5d7b"/><path d="M32.4 9.4V25c0 1-.9 1.9-1.9 1.9H4.7c-1 0-1.9-.9-1.9-1.9V9.7l13.4 5.7c.4.2.9.3 1.4.3.5 0 1-.1 1.4-.3l13.4-6z" class="emailsst1"/><path d="M31.3 28.4h.1-.1zm0-26.4c-.3-.1-.6-.1-.9-.1H4.7c-1.9 0-3.5 1.6-3.5 3.5V25c0 1.9 1.6 3.5 3.5 3.5h25.8c.3 0 .6 0 .9-.1h.1c.5-.1.9-.3 1.2-.6.8-.6 1.3-1.6 1.3-2.8V5.4c0-1.7-1.1-3-2.7-3.4zm1.1 23c0 1-.8 1.9-1.9 1.9H4.7c-1 0-1.9-.8-1.9-1.9V9.7l13.4 5.7c.4.2.9.3 1.4.3.5 0 1-.1 1.4-.3l13.4-6.1V25zm0-17.4-1.2.5L18.3 14c-.5.2-1 .2-1.5 0L4 8.5 2.8 8V5.4c0-1.1.9-1.9 1.9-1.9h25.8c1.1 0 1.9.8 1.9 1.9v2.2z" style="fill:#503e90"/><path d="M32.4 5.4v2.2l-1.2.5L18.3 14c-.5.2-1 .2-1.5 0L4 8.5 2.8 8V5.4c0-1.1.9-1.9 1.9-1.9h25.8c1 0 1.9.8 1.9 1.9z" class="emailsst1"/></svg>