<svg xmlns="http://www.w3.org/2000/svg" xml:space="preserve" id="graphicdesign" x="0" y="0" style="enable-background:new 0 0 40.2 29.4" version="1.1" viewBox="0 0 40.2 29.4"><style>.designst0{fill:#ea5d7b}.designst3{fill:#503e90}</style><path d="M37.1 9.8V26c0 1.4-1.2 2.6-2.6 2.6H12.8c-1.1 0-2.1-.7-2.4-1.8h21c.5 0 .9-.1 1.4-.3.1 0 .1-.1.2-.1s.1-.1.2-.1c.1-.1.2-.1.3-.2.1-.1.2-.1.3-.2.1-.1.2-.2.2-.3.1-.1.1-.2.2-.3.4-.5.6-1.2.6-1.9V7.3c1.2.1 2.3 1.2 2.3 2.5z" class="designst0"/><path d="M31.4 4.3H8.3c-1.3 0-2.4 1-2.4 2.3v14.2c.4-1.1.9-2.2 1.5-3.3-.4-.4-.5-1-.3-1.5.1-.4.4-.8.8-1 .4-.2.8-.2 1.3-.1h.1c.4-.4.7-.8 1.1-1.2.2-.3.6-.5.9-.7 1.4-1 2.6.2 3.1 1.6.3.7.5 1.8.5 2.3.6 2 1.9 5 4.4 4.7.7-.1 1.4-.5 2-.9.5-.6 1-1.3 1.5-2 .6-.9 1.1-1.8 1.6-2.7-.4-.3-.6-.7-.7-1.1-.1-.5 0-1 .3-1.5 0 0 .1-.1.1-.2l-3-3.6c-.2.1-.4.1-.5.1-.4 0-.8-.1-1.1-.3-.6-.4-.9-1-.9-1.7 0-.4.1-.8.3-1.1.3-.5.7-.8 1.2-.9.5-.1 1.1 0 1.5.3.4.3.8.7.9 1.3.1.5 0 1-.3 1.5 0 .2-.1.3-.2.4l2.9 3.5c.3-.1.7-.2 1.1-.1 1.5-3 3.4-6.6 6-8.3h-.6z" style="fill:#e1deef"/><path d="M32.1 4.4c-1.1.8-1.9 1.8-2.6 2.9-1.1 1.8-2.1 3.6-2.9 5.6h.1c.9.6 1.2 1.8.6 2.8l2.8 3.5c.6-.2 1.2-.2 1.8.2.5.3.8.7.9 1.2.1.5 0 1.1-.3 1.5-.4.6-1 .9-1.7.9-.4 0-.8-.1-1.1-.3-.9-.6-1.2-1.8-.6-2.8 0-.1.1-.2.2-.2l-2.8-3.4c-.3.2-.6.2-.9.2-.2 0-.3 0-.5-.1-.8 1.8-2 3.5-3.2 5.1-4 3.2-6.9-.5-8-4.3-.2-1.1-.6-4.6-2.3-3.5-.2.1-.5.2-.6.3l-.4.4c-.3.3-.5.6-.8.8.4.4.6 1 .4 1.6-.2.7-.9 1.2-1.6 1.2-.1 0-.3 0-.5-.1-.1 0-.2-.1-.4-.2-.2.3-.4.7-.6 1-.6 1.2-1 2.3-1.3 3.3v1.4c0 1.3 1.1 2.4 2.4 2.4h23.1c1.3 0 2.4-1.1 2.4-2.4V6.6c.1-1-.6-1.9-1.6-2.2z" style="fill:#fff"/><path d="M8 16.6c0 .1 0 .1 0 0 0 .1 0 .1 0 0 0 .1 0 0 0 0zm23.8 4.6s0 .1 0 0z" class="designst3"/><path d="M8 16.7c0-.1 0 0 0 0z" class="designst0"/><path d="M8 16.7c0-.1 0 0 0 0zm23.8 4.5c0 .1 0 0 0 0z" class="designst3"/><path d="M4.2 5C3.8 3.9 3 3.1 2 2.6 3 2.2 3.9 1.4 4.4.4c.4 1.1 1.2 1.9 2.2 2.4C5.6 3.2 4.7 4 4.2 5z" class="designst0"/><path d="M34.5 5.5c-.2-.6-.7-1.2-1.3-1.5-.1-.1-.2-.1-.3-.2-.4-.2-1-.3-1.5-.3H8.3c-.9 0-1.7.4-2.4 1l-.1.1c-.5.4-.9 1.2-.9 2v16.9c0 1.8 1.5 3.3 3.4 3.3h23.1c.5 0 .9-.1 1.4-.3.1 0 .1-.1.2-.1s.1-.1.2-.1c.1-.1.2-.1.3-.2.1-.1.2-.1.3-.2.1-.1.2-.2.2-.3.1-.1.1-.2.2-.3.4-.5.6-1.2.6-1.9V6.6c-.1-.4-.1-.8-.3-1.1zM5.9 6.6c0-1.3 1.1-2.4 2.4-2.4h23.1c.2 0 .4 0 .6.1-2.6 1.7-4.6 5.3-6 8.3-.4-.1-.7 0-1.1.1L22 9.2c.1-.1.2-.2.2-.3.3-.5.4-1 .3-1.5-.1-.5-.4-1-.9-1.3-.4-.3-1-.4-1.5-.3-.5.1-1 .4-1.2.9-.2.3-.3.7-.3 1.1 0 .7.3 1.3.9 1.7.3.2.7.3 1.1.3.2 0 .4 0 .5-.1l3 3.6c-.1.1-.1.1-.1.2-.3.5-.4 1-.3 1.5.1.4.3.8.7 1.1-.4.9-.9 1.8-1.6 2.7-.5.7-1 1.4-1.5 2-.6.5-1.3.8-2 .9-2.5.2-3.8-2.8-4.4-4.7-.1-.5-.3-1.6-.5-2.3-.4-1.3-1.6-2.6-3.1-1.6-.3.2-.7.4-.9.7-.4.4-.7.8-1.1 1.2h-.1c-.4-.1-.9-.1-1.3.1s-.7.6-.8 1c-.2.5 0 1.1.3 1.5-.6 1-1.1 2.1-1.5 3.3V6.6zM8 16.7c0-.1 0 0 0 0zm25.8 6.9c0 1.3-1.1 2.4-2.4 2.4H8.3c-1.3 0-2.4-1.1-2.4-2.4v-1.4c.3-1 .7-2.1 1.3-3.3.2-.3.4-.7.6-1 .1.1.2.2.4.2.1 0 .3.1.5.1.7 0 1.4-.5 1.6-1.2.2-.6 0-1.2-.4-1.6.3-.3.5-.6.8-.8l.4-.4c.1-.1.4-.2.6-.3 1.7-1.1 2.1 2.4 2.3 3.5 1 3.9 4 7.5 8 4.3 1.3-1.5 2.4-3.2 3.2-5.1.2 0 .3.1.5.1.3 0 .7-.1.9-.2l2.8 3.4-.2.2c-.6.9-.3 2.1.6 2.8.3.2.7.3 1.1.3.6 0 1.3-.3 1.7-.9.3-.4.4-1 .3-1.5-.1-.5-.4-1-.9-1.2-.5-.4-1.2-.4-1.8-.2l-2.8-3.5c.6-.9.3-2.2-.6-2.8h-.1c.8-1.9 1.8-3.8 2.9-5.6.7-1.1 1.5-2.2 2.6-2.9 1 .3 1.7 1.2 1.7 2.3v16.7zm-2-2.3s0-.1 0 0zm0-.1c0 .1 0 0 0 0z" class="designst3"/></svg>