<svg xmlns="http://www.w3.org/2000/svg" xml:space="preserve" id="increase" x="0" y="0" style="enable-background:new 0 0 40.2 29.4" version="1.1" viewBox="0 0 40.2 29.4"><style>.increasest1{fill:#503e90}</style><path d="M3.4 22.1C2.9 21 2 20.1.9 19.6c1.1-.5 1.9-1.4 2.4-2.4.5 1.1 1.4 2 2.4 2.4-1 .5-1.8 1.4-2.3 2.5zM29.1 9.6c-.5-1-1.3-1.9-2.4-2.3 1-.5 1.9-1.3 2.3-2.4.5 1 1.3 1.9 2.4 2.4-1 .4-1.8 1.2-2.3 2.3z" style="fill:#ea5d7b"/><path d="M36.3 10.1c-.1.1-.1.2-.2.3.1-.1.2-.2.2-.3zm1.6 2.2-.8 1.1c-.2.3-4.7 6.3-13.6 1.2-1.6-1-3.3-1.5-5-1.7-2.5-.3-4.8.1-6.8 1.2-3.4 1.8-5.5 5.4-5.5 9.4v4.3H38V12.5l-.1-.2zm-.8 14.4H7.2v-3.3c0-3.6 1.9-6.9 5-8.5 1.8-1 3.9-1.3 6.2-1.1 1.5.2 3.1.7 4.6 1.6 7.4 4.3 12.1 1.2 14-.5v11.8z" class="increasest1"/><path d="M37.1 14.9v11.8H7.2v-3.3c0-3.6 1.9-6.9 5-8.5 1.8-1 3.9-1.3 6.2-1.1 1.5.2 3.1.7 4.6 1.6 7.4 4.3 12.2 1.2 14.1-.5z" style="fill:#e1deef"/><path d="m37.9 12.3.1.2v-.4l-.1.2zM39.4 6v.2l-1.3 5.7-1.9-1.6c.1-.1.1-.2.2-.3-.1.1-.1.2-.2.2-1.8 2.6-5 3.7-8.1 2.9-1.5-.4-3-1.1-4.3-2-1.2-.9-2.5-1.6-3.9-2-6.1-2-11.4 3.3-14.4 8C9 9.2 16.6 4.2 24.4 10.2c3.7 2.9 7.7 3.2 11.2-.4l-1.8-1.5 5.4-2.4.2.1z" class="increasest1"/><path d="M36.3 10.1c-.1.1-.1.2-.2.3.1-.1.2-.2.2-.3z" class="increasest1"/></svg>