<svg xmlns="http://www.w3.org/2000/svg" xmlns:xlink="http://www.w3.org/1999/xlink" xml:space="preserve" id="instorelocation" x="0" y="0" style="enable-background:new 0 0 40.2 29.4" version="1.1" viewBox="0 0 40.2 29.4"><style>.st0{fill:#ea5d7b}</style><path d="M31.1 7.4c-.4-1-1.1-1.8-2.1-2.3 1-.4 1.8-1.1 2.3-2.1.4 1 1.1 1.8 2.1 2.3-1 .4-1.9 1.1-2.3 2.1zm-3.9 9c-1.3 1.3-2.5 2.7-3.4 4.3l-.7 1.1-2 3.4-.1.1-.9 1.7h-1.5l1.3-2.2v-.1l2.2-3.9c.8-1.4 1.9-2.8 3.3-4.2 1.8-1.8 2.8-4.2 2.8-6.8v-.9C27.9 5.1 25.3 2 21.9.7c4.2.6 7.4 4 7.8 8.2.3 3-.7 5.6-2.5 7.5z" class="st0"/><path d="M28.2 9.1c-.3-3.8-2.9-6.9-6.3-8.2-.7-.2-1.4-.4-2.2-.5-2.7-.3-5.4.6-7.4 2.4-2 1.8-3.2 4.4-3.2 7.2 0 2.6 1 5 2.8 6.8 1.3 1.3 2.3 2.6 3.1 3.9l3.7 6.4 1.3-2.2 2.3-3.9c.8-1.4 1.9-2.8 3.3-4.2 1.8-1.8 2.8-4.2 2.8-6.8-.1-.3-.1-.6-.2-.9zM24.8 16c-1.5 1.5-2.6 3-3.5 4.4l-2 3.5-.7 1.2-2.9-5c-.8-1.4-1.8-2.7-3.2-4.1-1.6-1.5-2.5-3.7-2.5-6 0-2.5 1.1-4.8 2.9-6.5 1.3-1.2 2.9-1.9 4.7-2.1.4 0 .7-.1 1.1-.1.3 0 .7 0 1 .1 2 .2 3.8 1.2 5.2 2.5 1.4 1.4 2.2 3.2 2.4 5.3.2 2.5-.7 5-2.5 6.8z" style="fill:#503e90"/><path d="M27.3 9.2c-.2-2-1.1-3.9-2.4-5.3-1.4-1.4-3.2-2.3-5.2-2.5-.3 0-.7-.1-1-.1-.4 0-.7 0-1.1.1-1.7.2-3.3.9-4.7 2.1-1.8 1.7-2.9 4-2.9 6.5 0 2.3.9 4.5 2.5 6.1 1.4 1.4 2.4 2.7 3.2 4.1l2.9 5 .7-1.2 2-3.5c.8-1.5 2-2.9 3.5-4.4 1.8-1.9 2.7-4.4 2.5-6.9zm-8.5 7c-3.4 0-6.2-2.8-6.2-6.2 0-3.4 2.8-6.2 6.2-6.2 3.4 0 6.2 2.8 6.2 6.2 0 3.4-2.8 6.2-6.2 6.2z" style="fill:#e1deef"/><path d="M16.3 29c-.3-.7-.8-1.2-1.5-1.5.7-.3 1.2-.8 1.5-1.5.3.7.8 1.2 1.5 1.5-.7.3-1.2.8-1.5 1.5z" class="st0"/><defs><path id="SVGID_1_" d="M13.4 10c0-3 2.4-5.4 5.4-5.4 3 0 5.4 2.4 5.4 5.4 0 3-2.4 5.4-5.4 5.4-3 0-5.4-2.4-5.4-5.4m-1 0c0 3.5 2.9 6.4 6.4 6.4 3.5 0 6.4-2.9 6.4-6.4 0-3.5-2.9-6.4-6.4-6.4-3.6 0-6.4 2.9-6.4 6.4"/></defs><use xlink:href="#SVGID_1_" style="overflow:visible;fill:#503e90"/><clipPath id="SVGID_00000128484692454684588750000015067309379321715349_"><use xlink:href="#SVGID_1_" style="overflow:visible"/></clipPath><path d="M12.4 3.6h12.7v12.7H12.4z" style="clip-path:url(#SVGID_00000128484692454684588750000015067309379321715349_);fill:#503e90"/></svg>