<svg xmlns="http://www.w3.org/2000/svg" xml:space="preserve" id="increase" x="0" y="0" style="enable-background:new 0 0 40.2 29.4" version="1.1" viewBox="0 0 40.2 29.4"><style>.st1{fill:#ea5d7b}.st2{fill:#503e90}.st3{fill:#e1deef}</style><path d="M11.6 16.9v10.5c0 .9-.7 1.5-1.8 1.5h-.7c1-.3 1.6-1.3 1.6-2.3v-8.9c0-1.1-.7-2-1.6-2.3h.6c1-.1 1.9.6 1.9 1.5z" class="st1"/><path d="m39 23.3-1.8 1.3 2.6 1.8-1 1.3-2.6-1.7-.5 2.2-3.1-5.5-.1-.2h.2z" class="st2"/><path d="M6.5 13.9c-.4-.8-1-1.4-1.8-1.8.8-.4 1.4-1 1.8-1.8.4.8 1 1.5 1.8 1.8-.8.3-1.4 1-1.8 1.8zm21.6-7.2c-.4-.8-1-1.4-1.8-1.8.8-.4 1.4-1 1.8-1.8.4.8 1 1.5 1.8 1.8-.7.4-1.4 1-1.8 1.8zm3.7 5.6v13.9c0 1.2-1.1 2.4-2.3 2.4h-.9c1.1-.2 2-1.2 2-2.4V12.5c0-1.2-.8-2.1-1.9-2.4h.9c1.2 0 2.2 1 2.2 2.2zm-20.2 4.6v10.5c0 .9-.7 1.5-1.8 1.5h-.7c1-.3 1.6-1.3 1.6-2.3v-8.9c0-1.1-.7-2-1.6-2.3h.6c1-.1 1.9.6 1.9 1.5z" class="st1"/><path d="M9.1 15.3c-.3-.1-.6-.2-.8-.2H4.8c-1.4 0-2.5 1.1-2.5 2.5v8.9c0 1.4 1.1 2.5 2.5 2.5h3.5c.3 0 .6 0 .8-.1 1-.3 1.6-1.3 1.6-2.3v-8.9c0-1.2-.7-2.1-1.6-2.4zm.9 11.2c0 1-.8 1.8-1.8 1.8H4.8c-1 0-1.8-.8-1.8-1.8v-8.9c0-1 .8-1.8 1.8-1.8h3.5c1 0 1.8.8 1.8 1.8v8.9z" class="st2"/><path d="M10 17.6v8.9c0 1-.8 1.8-1.8 1.8H4.8c-1 0-1.8-.8-1.8-1.8v-8.9c0-1 .8-1.8 1.8-1.8h3.5c.9 0 1.7.8 1.7 1.8z" class="st3"/><path d="m39 23.3-1.8 1.3 2.6 1.8-1 1.3-2.6-1.7-.5 2.2-3.1-5.5-.1-.2h.2z" class="st2"/><path d="M6.5 13.9c-.4-.8-1-1.4-1.8-1.8.8-.4 1.4-1 1.8-1.8.4.8 1 1.5 1.8 1.8-.8.3-1.4 1-1.8 1.8zm10.1-8.7c-.4-.8-1-1.4-1.8-1.8.8-.4 1.4-1 1.8-1.8.4.8 1 1.5 1.8 1.8-.8.4-1.4 1-1.8 1.8zm11.5 1.5c-.4-.8-1-1.4-1.8-1.8.8-.4 1.4-1 1.8-1.8.4.8 1 1.5 1.8 1.8-.7.4-1.4 1-1.8 1.8zm3.7 5.6v13.9c0 1.2-1.1 2.4-2.3 2.4h-.9c1.1-.2 2-1.2 2-2.4V12.5c0-1.2-.8-2.1-1.9-2.4h.9c1.2 0 2.2 1 2.2 2.2z" class="st1"/><path d="M28.7 10.1c-.2-.1-.4-.1-.6-.1h-3.5c-1.4 0-2.5 1.1-2.5 2.5v13.6c0 1.4 1.1 2.5 2.5 2.5h4c1.1-.2 2-1.2 2-2.4V12.5c0-1.1-.8-2.1-1.9-2.4zm-4.1 17.8c-1 0-1.8-.8-1.8-1.8V12.5c0-1 .8-1.8 1.8-1.8h3.5c1 0 1.8.8 1.8 1.8v13.6c0 1-.8 1.8-1.8 1.8h-3.5z" class="st2"/><path d="M29.9 12.5v13.6c0 1-.8 1.8-1.8 1.8h-3.5c-1 0-1.8-.8-1.8-1.8V12.5c0-1 .8-1.8 1.8-1.8h3.5c1 .1 1.8.9 1.8 1.8z" class="st3"/><path d="M21.6 13.3v13.1c0 1.1-1.1 2.2-2.3 2.2h-.9c1.1-.2 2-1.2 2-2.3V13.5c0-1.1-.8-2-1.9-2.3h.9c1.2 0 2.2 1 2.2 2.1z" class="st1"/><path d="M18.5 11.2c-.2-.1-.4-.1-.6-.1h-3.5c-1.4 0-2.5 1.1-2.5 2.3v12.8c0 1.3 1.1 2.3 2.5 2.3h4c1.1-.2 2-1.2 2-2.3V13.5c0-1.1-.8-2-1.9-2.3zM14.4 28c-1 0-1.8-.8-1.8-1.7V13.5c0-.9.8-1.7 1.8-1.7h3.5c1 0 1.8.8 1.8 1.7v12.8c0 .9-.8 1.7-1.8 1.7h-3.5z" class="st2"/><path d="M19.7 13.5v12.8c0 .9-.8 1.7-1.8 1.7h-3.5c-1 0-1.8-.8-1.8-1.7V13.5c0-.9.8-1.7 1.8-1.7h3.5c1 0 1.8.8 1.8 1.7z" class="st3"/><path d="M7.8 11.4c2.2-4.8 6.8-7.9 11.5-4.2 2.3 1.8 5.1 2.2 7.3-.1-1.1 1.7-3.1 2.4-5 1.9-.9-.2-1.8-.7-2.6-1.2-.7-.5-1.5-1-2.4-1.2-3.8-1.3-7 1.9-8.8 4.8z" class="st2"/></svg>