<svg xmlns="http://www.w3.org/2000/svg" xml:space="preserve" id="livechats1" x="0" y="0" style="enable-background:new 0 0 40.2 29.4" version="1.1" viewBox="0 0 40.2 29.4"><style>.st0{fill:#ea5d7b}.st2{fill:#503e90}</style><path d="M15.7 19.6c-.9-.3-1.7-.8-2.3-1.4-.4-.4-.8-.8-1-1.3h1s1 .1 1.7 1.2c.4.3.5.8.6 1.5z" class="st0"/><path d="M30.6 9.8c0 1.7-.6 3.1-1.8 4.3-.9.9-2.1 1.4-3.4 1.7l-4.2.2v.5c0 1.3-.3 2.6-.6 3.6L17 20h-.3c-.1-.9-.4-1.8-.8-2.5-.9-1.4-2.3-1.6-2.3-1.6H12c-.3-.8-.5-1.6-.5-2.5 0-.5 0-.9.1-1.4H20c.3 0 .6-.3.6-.6s-.3-.6-.6-.6h-7.9c.3-.6.6-1.2 1-1.6h14.4c.4 0 .6-.3.6-.6s-.3-.6-.6-.6H14.4c1-.8 2.5-1.2 3.9-1.2h11.6c.5 1 .7 2 .7 3z" class="st0"/><path d="M39.5 13.5c0 3.6-3.1 6.6-6.9 6.6H29s-5.5-.3-3 7.1c0 0-4.4-.5-5.1-5.8.6-1.3 1.2-3.3 1.2-5h3.5l.2-.2c1.4-.3 2.1-.4 3.2-1.5 1.4-1.3 2.5-3 2.5-4.8 0-1-.3-2.1-.6-3h1.8c1.9 0 3.6.8 4.8 1.9 1.2 1.2 2 2.9 2 4.7z" class="st0"/><path d="M29.9 6.9c-1-1.9-3.2-3.2-5.6-3.2H9.9c-1.7 0-3.2.6-4.5 1.8-1.3 1.1-1.9 2.7-1.9 4.2 0 3.4 2.9 6.1 6.4 6.1h3.6c.1 0 1.4.1 2.3 1.6.4.6.8 1.4.8 2.5.1 1.4 0 3.2-.5 5.5 1.2-.9 3.3-2.5 4.3-5 .5-1 .9-2.2.7-3.5v-.8l4.2-.3c1.3-.3 2.5-.6 3.4-1.5 1.2-1.2 2-2.7 2-4.3.1-1-.3-2.2-.8-3.1zM7 12.1c-.3 0-.6-.3-.6-.6s.3-.6.6-.6h12.9c.3 0 .6.3.6.6s-.3.6-.6.6H7zm20.5-2.9H9.1c-.4 0-.6-.3-.6-.6s.3-.6.6-.6h18.4c.4 0 .6.3.6.6-.1.3-.3.6-.6.6z" style="fill:#e1deef"/><path d="M30.9 6.9c-1.2-2.5-3.6-4.2-6.6-4.2H9.9c-1.9 0-3.8.8-5.2 2.1S2.6 7.9 2.6 9.7c0 3.9 3.2 7 7.3 7h3.6s1 .1 1.7 1.2c.3.4.5.9.6 1.6.3 1.4.1 3.5-.8 6.6l-.4 1.2 1-.6c.3-.1 3.5-2.1 5.3-5.5.6-1.3 1.2-2.7 1.2-4.4l3.4-.1c1.4-.3 2.7-.9 3.8-1.9 1.4-1.3 2.2-3.1 2.2-4.9.1-1.1-.2-2.1-.6-3zm-2.1 7.2c-.9.9-2.1 1.4-3.4 1.7l-4.2.2v.5c0 1.3-.3 2.6-.6 3.6-1 2.5-3.1 4.3-4.3 5.2.5-2.1.8-3.9.5-5.5-.1-.9-.4-1.8-.8-2.5-.9-1.4-2.3-1.6-2.3-1.6H10c-3.5 0-6.4-2.7-6.4-6.1 0-1.7.6-3.1 1.8-4.3s2.7-1.8 4.4-1.8h14.4c2.5 0 4.5 1.3 5.6 3.2.5.9.8 1.8.8 3 0 1.7-.6 3.3-1.8 4.4z" class="st2"/><path d="M4.6 3.3c-.7.3-1.3.9-1.7 1.7-.3-.8-.9-1.4-1.7-1.8.8-.3 1.4-.9 1.8-1.6.3.7.9 1.3 1.6 1.7zM28.2 27c.7-.4 1.3-1 1.6-1.7.4.7 1 1.3 1.7 1.6-.7.4-1.3 1-1.6 1.7-.4-.7-1-1.2-1.7-1.6z" class="st0"/><path d="M28 8.7c0 .4-.3.6-.6.6H9.1c-.4 0-.6-.3-.6-.6-.1-.3.2-.7.6-.7h18.4c.3 0 .5.3.5.7zm-7.5 2.7c0 .4-.3.6-.6.6H7c-.3 0-.6-.3-.6-.6s.3-.6.6-.6h12.9c.4.1.6.3.6.6z" class="st2"/></svg>