<svg xmlns="http://www.w3.org/2000/svg" xml:space="preserve" id="instorelocation" x="0" y="0" style="enable-background:new 0 0 40.2 29.4" version="1.1" viewBox="0 0 40.2 29.4"><style>.st1{fill:#503e90}</style><path d="M32.7 6.7c-.4-1-1.1-1.8-2.1-2.3 1-.4 1.8-1.1 2.3-2.1.4 1 1.1 1.8 2.1 2.3-1 .4-1.8 1.1-2.3 2.1zm-3.5-.4v20.8c0 1.1-.9 2.1-2.1 2.1H12.6c0-.6.3-1.2.7-1.6H24c1.5 0 2.8-1.3 2.8-2.8V4.6h.7c1 0 1.7.7 1.7 1.7z" style="fill:#ea5d7b"/><path d="M26.8 4.6v19.8V4.6zm0 0v-.9c0-1.5-1.3-2.8-2.8-2.8H11.9c-1.5 0-2.8 1.3-2.8 2.8v21.1c0 1.5 1.3 2.8 2.8 2.8H24c1.5 0 2.8-1.3 2.8-2.8V4.6zM10 24.4v-3.2h16v3.2c0 1.3-1 2.3-2.3 2.3H12.3c-1.3 0-2.3-1-2.3-2.3zm0-4.1V3.6c0-1.1.9-1.9 1.9-1.9H24c1.1 0 1.9.9 1.9 1.9v16.7H10z" class="st1"/><path d="M17.9 13.2c.3.3 1.4-.4 1.8-.3.3.1.6.3.8.6.2.3.4.6.4 1 0 .8-.8 1.4-1.5 1.3-.8 0-1.4-.5-2-1.1-1-1-2-3.4-2.1-4.8-.1-1.4.2-2.5 1.4-3.1 1.4-.7 2.3 1.3 1.9 2.2-.2.5-1.6.5-2.1 1 0 0-.1 2 1.4 3.2z" class="st1"/><path d="M26 21.2v3.2c0 1.3-1 2.3-2.3 2.3H12.3c-1.3 0-2.3-1-2.3-2.3v-3.2h16z" style="fill:#b5abd4"/><path d="M26.8 20.3v4.1-4.1zM20.2 7.2c2.5.5 3.3 3.6 2.3 5.8 0-.8 0-1.7-.2-2.5-.2-1.3-.9-2.5-2.1-3.3zm2.4.4c1.6.2 2.4 2.2 1.6 3.6-.1-.7-.1-1.4-.4-2-.2-.6-.7-1.1-1.2-1.6zm-6.6 8c-2.1-.3-3.1-2.7-2.6-4.6.3-.9.3-1 .3 0 0 1.9.7 3.7 2.3 4.6zm-2.5.1c-1.5-.3-2.2-2.3-1.3-3.5 0 .6 0 1.3.3 1.9.2.6.5 1.1 1 1.6zm4.6 9.7c-.9 0-1.6-.7-1.6-1.6 0-.9.7-1.6 1.6-1.6s1.6.7 1.6 1.6c0 .9-.7 1.6-1.6 1.6z" class="st1"/></svg>