<svg xmlns="http://www.w3.org/2000/svg" xml:space="preserve" id="photography" x="0" y="0" style="enable-background:new 0 0 40.2 29.4" version="1.1" viewBox="0 0 40.2 29.4"><style>.st0{fill:#ea5d7b}.st1{fill:#503e90}.st3{fill:#e1deef}</style><path d="M14.3 24.6h-.2c-.1 0-.1-.1-.2-.1.2.1.4.1.4.1zm10 3.2h-9.8c-1.3 0-2.4-1.1-2.5-2.4v-.7h2.1c.3.1.5.3.8.4 1.4.6 2.9.9 4.5.8 1.5-.1 3.6.2 4.5 1 .3.2.4.5.4.9zm1.3-.5h-.4c0-.1 0-.2-.1-.3.1.1.3.2.5.3zm12.7-18v15.9c0 1.4-1.1 2.5-2.5 2.5h-2.5c.1-1.5-.2-2.5-.5-3.1h.2c1.2 0 2.1-1 2.1-2.1V7.2l.4-.3h.2c1.4 0 2.6 1.1 2.6 2.4z" class="st0"/><circle cx="21.7" cy="12.6" r="6.1" class="st1" transform="rotate(-76.714 21.715 12.6)"/><path d="M36.1 4.5c-.3-.8-1-1.5-1.8-1.9.8-.3 1.5-1 1.9-1.8.3.8 1 1.5 1.8 2-.8.2-1.5.9-1.9 1.7z" class="st0"/><path d="M15.9 3.9c-.1.1-.1.2-.2.3.1-.1.2-.2.2-.3 0 0 0-.1 0 0 0-.1 0 0 0 0zm-10.3 3c.1 0 .1 0 0 0 .1 0 .1 0 0 0zm23.6 9.5s-.2-.2-.3-.4h.1l.2.4zm-14.9 8.2h-.2c-.1 0-.1-.1-.2-.1.2.1.4.1.4.1z" class="st1"/><path d="m29.3 9.5-.2.1c-1.2-3.2-4-5-7.4-5-4.4 0-8 3.6-8 8s3.6 8 8 8c3.1 0 6-1.8 7.3-4.6-.1-.1-.1-.2-.1-.2-1.6-1.9-1.2-4.7.4-6.3zm-7.6 9.2c-3.4 0-6.1-2.7-6.1-6.1v-.8c0-.1 0-.2.1-.4v-.2c.1-.3.1-.5.3-.8v-.1c0-.1.1-.2.1-.3 0-.1.1-.2.1-.2s0-.1.1-.1c.1-.1.2-.3.2-.4.1-.1.2-.3.3-.4 0-.1.1-.1.1-.2.1-.1.2-.2.2-.3l.1-.1c.1-.1.2-.2.4-.3.2-.1.3-.2.5-.4.1-.1.3-.2.4-.3h.2c.1-.1.3-.2.4-.2.2-.1.4-.1.6-.2.2-.1.4-.1.5-.1.1 0 .3-.1.5-.1h1.5c.1 0 .2 0 .4.1h.1c.2 0 .4.1.5.1.2.1.4.1.6.2.2.1.3.2.5.2h.1c.1.1.3.2.5.3.2.1.3.2.5.4l.3.3.1.1s.1 0 .1.1c.1.1.2.2.3.4.2.3.5.6.6 1v.1c.1.1.1.3.2.4 0 .1.1.2.1.3.1.2.1.4.2.6.1.2.1.4.1.6v.8c.4 3.2-2.3 6-5.7 6z" class="st3"/><path d="M13.7 10.5zm15.5 5.9s-.2-.2-.3-.4h.1l.2.4zm-13.3-13v.2-.2zm-1.1 1.5.2-.1s-.1 0-.2.1zM13 1.1h-.1c.2 0 .3.1.5.1-.2 0-.3-.1-.4-.1zm13.8 2.7h.4-.4zm-13.1 6.7z" class="st1"/><path d="M34.2 6v16.5c0 .6-.5 1.2-1.2 1.2h-1.1c1.8-1.6 2.2-4.3 1.5-6.6-.2-.6-.5-1.4-.7-2-.6-1.9-1.4-4.1-2-6l-.2-.5-.4.3c-.1 0-.1.1-.2.1-.7-1.9-1.9-3.2-3.4-4.1H33c.7-.1 1.2.4 1.2 1.1zM17.3 4.8c-1.7 1-3.1 2.5-3.9 4.4-.1-.2-.2-.4-.4-.6-.9-1.2-2.2-2-3.5-2.4-.1-1.2.2-1.7.4-1.9 2.3 1.3 4.1.8 4.8.6l.3-.1h2.3z" class="st3"/><path d="M15.9 3.9c0 .1-.1.2-.2.3.1-.1.1-.2.2-.3z" class="st1"/><path d="M33 3.9h-1v-1c0-.6-.5-1.1-1.1-1.1h-3.2c-.6 0-1.1.5-1.1 1.1v.9h.4-2.9c-.5-.2-2.8-1-5.5 0h-2.9c0 .1-.1.2-.2.3 0-.1.1-.2.2-.3v-.4c-.2-.3-.9-1.5-2.5-2.1-.2 0-.3-.1-.5-.1h-.2c-.5-.1-1-.2-1.5-.2-.7 0-1.5.1-2.5.4-3.5 1-3.8 3.9-3.9 4.9C2.5 7 .8 9 .4 11.5v.1c0 .3-.1.6-.1.9 0 3.7 3 6.7 6.7 6.7.3 0 .5 0 .8-.1 0 1.1 0 2.2.2 3.7 0 .4.2.9.5 1.2.4.3.9.6 1.4.6H14c-.1 0-.1-.1-.2-.1.2.1.4.1.4.1H14c.3.1.5.3.8.4 1.4.6 2.9.9 4.5.8 1.5-.1 3.6.2 4.5 1 .3.2.4.5.4.9v.5h9v-.5c.1-1.5-.2-2.5-.5-3.1h.3c1.2 0 2.1-1 2.1-2.1V6c0-1.2-.9-2.1-2.1-2.1zm-18 .9c.1 0 .1-.1 0 0h2.2c-1.7 1-3.1 2.5-3.9 4.4 0-.2-.1-.4-.3-.6-.9-1.2-2.2-2-3.5-2.4-.1-1.2.2-1.7.4-1.9 2.3 1.3 4.1.8 4.8.6.2-.1.3-.1.3-.1zM12.8 10c0 .2-.6.6-.7.7l-1.5-1.9.8-.7c.3.2.5.5.8.8l.6 1.1zm-.1-7.9c1.3.4 2 1.2 2.2 1.6-.1.1-.2.2-.3.2h-.1s-.2.1-.4.1l-1.9-1.4.5-.5zM6.4 3.9c.5-.7 1.2-1.4 2.5-1.7 1.3-.4 2.3-.4 3.1-.3l-.6.8 2.2 1.5c-.8.1-2 .1-3.4-.8l-.2-.1h-.2c.1 0-1.4.2-1.3 2.7-.5-.1-1.1-.2-1.7-.2-.3 0-.7 0-1 .1 0-.5.2-1.3.6-2zM4.9 7.2s1.4-.8 2.4-.7c1.3.1 2.6.5 3.6 1.3l-1.2.9 2.3 2.6c0 .2-.1.3-.3.3 0 0-.5 0-1-.1-4.3-2.4-7.4-1.6-9.1-.8.6-1.5 1.8-2.7 3.3-3.5zm-3.6 5.3V12c1-.7 4.3-2.5 9.5.8 0 .3-.1.9-.1 1.4-1.6-.7-5.4-2-9 .6-.2-.7-.4-1.5-.4-2.3zm8.8 11.2c-.3 0-.7-.1-.9-.3-.1-.1-.2-.3-.2-.5-.2-2.5-.1-3.8-.1-5.6v-2.6h-1v3.5c-.3.1-.5.1-.8.1-2 0-3.8-1.1-4.8-2.6 1.9-1.5 4-1.6 5.6-1.4.4.1.8.2 1.1.2.1 0 .2.1.3.1.1 0 .2.1.3.1.2.1.4.1.5.2.2.1.3.1.4.2.1.1.2.1.2.1s.1 0 .1.1h.1v.4c0 .5.1 1.1.2 1.6-.1.7-1.1 4 1.6 6.4h-2.6zm15.1 3.6c0-.1 0-.2-.1-.3-.1-.3-.3-.5-.5-.8-1.4-1.3-4.3-1.3-5.1-1.3-1.5 0-2.9-.2-4.1-.7-3.2-1.4-3.6-3.6-3.4-5.1.9 1.9 2.5 3.6 4.5 4.4 1.5.6 3.2.7 4.7.3-2.5-.1-5-.8-6.6-2.7-.2-.3-.6-.6-.7-.9-1.2-1.6-2-3.6-2-5.6 0-.7.1-1.5.3-2.2.2-.1.5-.3.7-.5v.7c0 5 4 9 9 9 3.5 0 6.7-2 8.1-5.2l-.9-.4.1.4s-.2-.2-.3-.4c-1.3 2.8-4.2 4.6-7.3 4.6-4.4 0-8-3.6-8-8s3.6-8 8-8c3.3 0 6.2 1.8 7.4 5l.2-.1c-1.6 1.7-1.9 4.5-.5 6.3 0 0 .1.1.1.2h.1l-.1-.3c-.8-1.5-.7-3.3.1-4.7l.8 2.1 1.2-.5c.1.2.1.4.2.7.4 1.2 1 2.9 1.4 4 .8 2.6.4 5.7-2.1 7.2.2-.1.3-.2.5-.2.1 0 1.4.6 1.4 2.9h-7.1zm4.2-16.8.6-.6c.2.7.4 1.4.7 2.1l-.7.3-.6-1.8zm4.8 12c0 .6-.5 1.2-1.2 1.2h-1.1c1.8-1.6 2.2-4.3 1.5-6.6-.2-.6-.5-1.4-.7-2-.6-1.9-1.4-4.1-2-6l-.2-.5-.4.3c-.1 0-.1.1-.2.1-.7-1.9-1.9-3.2-3.4-4.1H33c.6 0 1.2.5 1.2 1.2v16.4z" class="st1"/><path d="M14.3 24.6h-.2c-.1 0-.1-.1-.2-.1.2.1.4.1.4.1z" class="st1"/><path d="M12.7 23.7h-2.6c-.3 0-.7-.1-.9-.3-.1-.1-.2-.3-.2-.5-.2-2.5-.1-3.8-.1-5.6v-2.6h-1v3.5c-.3.1-.5.1-.8.1-2 0-3.8-1.1-4.8-2.6l4 .6c1.2 0 1.8-1 1.6-2 .4.1.8.2 1.1.2.1 0 .2.1.3.1.1 0 .2.1.3.1.2.1.4.1.5.2.2.1.3.1.4.2.1.1.2.1.2.1s.1 0 .1.1h.1v.4c0 .5.1 1.1.2 1.6-.1.7-1.1 4 1.6 6.4z" class="st3"/><path d="M.4 11.5v.1-.1c-.1.1 0 0 0 0z" class="st1"/></svg>