<svg xmlns="http://www.w3.org/2000/svg" xml:space="preserve" id="ppc" x="0" y="0" style="enable-background:new 0 0 40.2 29.4" version="1.1" viewBox="0 0 40.2 29.4"><style>.adst0{fill:#ea5d7b}.adst1{fill:#503e90}</style><path d="M32.6 5.4c-.4-1-1.2-1.9-2.2-2.4 1-.4 1.9-1.2 2.4-2.2.4 1 1.2 1.9 2.2 2.4-1.1.4-1.9 1.2-2.4 2.2z" class="adst0"/><path d="M27.9 3.5s0-.1 0 0c-.5-.3-1-.4-1.5-.4H3.8C2 3.1.6 4.6.6 6.4v16.8c0 1.8 1.5 3.3 3.3 3.3h8.3c-.7.6-1.2 1.6-1.2 2.6v.5h10.5V29c0-1-.5-2-1.2-2.6h6.1c.2 0 .5 0 .7-.1H27c.1 0 .2 0 .3-.1.1 0 .2-.1.3-.1.2-.1.3-.2.5-.2.9-.6 1.6-1.6 1.6-2.8V6.4c0-1.3-.8-2.4-1.8-2.9zm-1.5 22H3.8c-1.3 0-2.4-1.1-2.4-2.3V6.4C1.5 5.1 2.5 4 3.8 4h22.5c1.3 0 2.4 1.1 2.4 2.3v16.8c0 1.3-1 2.4-2.3 2.4z" class="adst1"/><path d="M30.7 5.9v17.9c0 1.6-.9 2.6-2.3 2.6l-1.3-.1H27c.1 0 .2 0 .3-.1.1 0 .2-.1.3-.1.2-.1.3-.2.5-.2.9-.6 1.6-1.6 1.6-2.8V6.4c0-1.3-.7-2.3-1.8-2.9h-.1c-.5-.3-1.1-.3-1.1-.3h1.5c1.4-.1 2.5 1.2 2.5 2.7z" class="adst0"/><path d="M27 26.3c.1 0 .2 0 .3-.1-.1.1-.2.1-.3.1z" class="adst1"/><path d="M26.4 4H3.8C2.5 4 1.5 5.1 1.5 6.4v16.8c0 1.3 1.1 2.3 2.4 2.3h22.5c1.3 0 2.4-1.1 2.4-2.3V6.4C28.7 5.1 27.7 4 26.4 4z" style="fill:#e1deef"/><path d="M21.9 6.7H8.2c-1.8 0-3.3 1.5-3.3 3.3v9.8c0 1.8 1.5 3.3 3.3 3.3h13.7c1.8 0 3.3-1.5 3.3-3.3V9.9c0-1.8-1.5-3.2-3.3-3.2zm2.4 13c0 1.3-1.1 2.4-2.3 2.4H8.2c-1.3 0-2.4-1.1-2.4-2.4V9.9c0-1.3 1.1-2.4 2.4-2.4h13.7c1.3 0 2.3 1.1 2.3 2.4v9.8z" class="adst1"/><path d="M21.9 7.6H8.2c-1.3 0-2.4 1.1-2.4 2.4v9.8c0 1.3 1.1 2.4 2.4 2.4h13.7c1.3 0 2.3-1.1 2.3-2.4V9.9c.1-1.3-1-2.3-2.3-2.3z" style="fill:#fff"/><path d="M15.3 17.9c.6-.1.9-.4.9-.9 0-.2-.1-.4-.2-.6-.1-.2-.4-.3-.6-.4v1.9zm-1.7-5.1c0 .2.1.4.2.5.1.1.3.3.6.4v-1.9c-.3.1-.5.2-.6.3-.1.2-.2.4-.2.7zM18 17c0 .8-.2 1.4-.7 1.9-.5.5-1.1.8-1.9.9V21h-.9v-1.2c-.7-.1-1.4-.3-1.9-.6-.5-.4-.9-.9-1.1-1.5l1.6-.9c.3.7.8 1.1 1.5 1.2v-2.3c-.3-.1-.6-.2-.8-.3-.2-.1-.4-.2-.7-.4-.3-.2-.5-.3-.6-.5-.1-.2-.3-.4-.4-.7-.1-.3-.2-.6-.2-.9 0-.8.3-1.4.8-1.9s1.1-.7 1.9-.8V8.9h.9v1.2c1.2.1 2.1.8 2.6 1.9l-1.5.9c-.2-.5-.6-.9-1-1v2.2c.8.3 1.4.6 1.7.8.4.5.7 1.2.7 2.1zm20.6 5.9-2.4 1.4 2.9 2.5-1.3 1.5-2.9-2.5-.9 2.7-3.1-7.1-.1-.3.3.1z" class="adst1"/></svg>