<svg xmlns="http://www.w3.org/2000/svg" xml:space="preserve" id="seo" x="0" y="0" style="enable-background:new 0 0 40.2 29.4" version="1.1" viewBox="0 0 40.2 29.4"><style>.st0{fill:#ea5d7b}.st1{fill:#503e90}.st3{fill:#fff}</style><path d="M37.7 4.3c-.3-.8-.9-1.5-1.7-1.9.8-.3 1.5-.9 1.9-1.7.3.8.9 1.5 1.7 1.9-.8.3-1.5 1-1.9 1.7z" class="st0"/><path d="M32.2 1.9s-.1 0 0 0c-.5-.3-1-.4-1.6-.4H6.8C4.9 1.5 3.4 3 3.4 4.9v17.7c0 1.9 1.5 3.4 3.4 3.4h8.7c-.8.7-1.2 1.7-1.2 2.8v.5h11.1v-.5c0-1.1-.5-2.1-1.2-2.8h6.5c.3 0 .5 0 .7-.1h-.1.4c.1 0 .2-.1.3-.1.2-.1.4-.2.5-.3 1-.6 1.6-1.7 1.6-2.9V4.9c-.1-1.3-.8-2.4-1.9-3zm.9 20.7c0 1.4-1.1 2.5-2.5 2.5H6.8c-1.4 0-2.5-1.1-2.5-2.5V4.9c0-1.4 1.1-2.5 2.5-2.5h23.8c1.4 0 2.5 1.1 2.5 2.5v17.7z" class="st1"/><path d="M35.1 4.5v18.9c0 1.6-1 2.7-2.4 2.7l-1.4-.1h-.1.4c.1 0 .2-.1.3-.1.2-.1.4-.2.5-.3 1-.6 1.6-1.7 1.6-2.9V4.9c0-1.3-.8-2.5-1.9-3H32c-.4-.4-1-.4-1-.4h1.5c1.4 0 2.6 1.3 2.6 3z" class="st0"/><path d="M31.3 26h.2-.2z" class="st1"/><path d="M14.8 14.5c-.1-.2-.3-.5-.5-.6-.2-.2-.5-.3-.7-.3-.2-.1-.5-.2-.8-.3-.5-.1-.8-.3-.9-.4-.2-.1-.2-.2-.2-.4 0-.1.1-.2.2-.3.1-.1.3-.1.5-.1.5 0 .8.2 1.1.7l1.4-.8c-.2-.5-.6-.9-1-1.1-.4-.3-.9-.4-1.5-.4-.7 0-1.2.2-1.7.6-.4.4-.7.9-.7 1.5s.2 1 .5 1.4c.4.3.9.6 1.5.8.4.1.7.2.8.3.3.1.5.3.5.5 0 .3-.3.4-.8.4-.6 0-1.1-.3-1.3-.9l-1.5.9c.2.5.5.9 1 1.2.5.3 1.1.5 1.8.5.8 0 1.4-.2 1.9-.6.5-.4.7-.9.7-1.6-.1-.5-.2-.8-.3-1zm2.6 1.2v-1h2.3v-1.6h-2.3v-.9H20v-1.6h-4.3v6.7H20v-1.6h-2.6zm9.1-4.3c-.7-.7-1.5-1-2.5-1s-1.8.3-2.5 1-1 1.5-1 2.5.3 1.8 1 2.5 1.5 1 2.5 1 1.8-.3 2.5-1 1-1.5 1-2.5-.3-1.8-1-2.5zm-1.2 3.9c-.4.3-.8.5-1.3.5s-1-.2-1.3-.5c-.3-.3-.5-.8-.5-1.3s.2-1 .5-1.3c.3-.3.8-.5 1.3-.5s1 .2 1.3.5c.3.3.5.8.5 1.3s-.1.9-.5 1.3zm1.2-3.9c-.7-.7-1.5-1-2.5-1s-1.8.3-2.5 1-1 1.5-1 2.5.3 1.8 1 2.5 1.5 1 2.5 1 1.8-.3 2.5-1 1-1.5 1-2.5-.3-1.8-1-2.5zm-1.2 3.9c-.4.3-.8.5-1.3.5s-1-.2-1.3-.5c-.3-.3-.5-.8-.5-1.3s.2-1 .5-1.3c.3-.3.8-.5 1.3-.5s1 .2 1.3.5c.3.3.5.8.5 1.3s-.1.9-.5 1.3zm-7.9-.6h2.3v-1.6h-2.3v-.9H20v-1.6h-4.3v6.7H20v-1.6h-2.6v-1zm-3.1-.8c-.2-.2-.5-.3-.7-.3-.2-.1-.5-.2-.8-.3-.5-.1-.8-.3-.9-.4-.2-.1-.2-.2-.2-.4 0-.1.1-.2.2-.3.1-.1.3-.1.5-.1.5 0 .8.2 1.1.7l1.4-.8c-.2-.5-.6-.9-1-1.1-.4-.3-.9-.4-1.5-.4-.7 0-1.2.2-1.7.6-.4.4-.7.9-.7 1.5s.2 1 .5 1.4c.4.3.9.6 1.5.8.4.1.7.2.8.3.3.1.5.3.5.5 0 .3-.3.4-.8.4-.6 0-1.1-.3-1.3-.9l-1.5.9c.2.5.5.9 1 1.2.5.3 1.1.5 1.8.5.8 0 1.4-.2 1.9-.6.5-.4.7-.9.7-1.6 0-.3-.1-.6-.2-.9-.2-.4-.4-.6-.6-.7zM30.6 2.5H6.8C5.4 2.5 4.3 3.6 4.3 5v17.7c0 1.4 1.1 2.5 2.5 2.5h23.8c1.4 0 2.5-1.1 2.5-2.5V4.9c0-1.3-1.1-2.4-2.5-2.4zm-.3 17c0 2.1-1.7 3.8-3.8 3.8H10.8c-2.1 0-3.8-1.7-3.8-3.8V8.2c0-2.1 1.7-3.8 3.8-3.8h15.8c2.1 0 3.8 1.7 3.8 3.8v11.3zM24 10.4c-1 0-1.8.3-2.5 1s-1 1.5-1 2.5.3 1.8 1 2.5 1.5 1 2.5 1 1.8-.3 2.5-1 1-1.5 1-2.5-.3-1.8-1-2.5c-.7-.6-1.5-1-2.5-1zm1.3 4.9c-.4.3-.8.5-1.3.5s-1-.2-1.3-.5c-.3-.3-.5-.8-.5-1.3s.2-1 .5-1.3c.3-.3.8-.5 1.3-.5s1 .2 1.3.5c.3.3.5.8.5 1.3s-.1.9-.5 1.3zm-7.9-.6h2.3v-1.6h-2.3v-.9H20v-1.6h-4.3v6.7H20v-1.6h-2.6v-1zm-3.1-.8c-.2-.2-.5-.3-.7-.3-.2-.1-.5-.2-.8-.3-.5-.1-.8-.3-.9-.4-.2-.1-.2-.2-.2-.4 0-.1.1-.2.2-.3.1-.1.3-.1.5-.1.5 0 .8.2 1.1.7l1.4-.8c-.2-.5-.6-.9-1-1.1-.4-.3-.9-.4-1.5-.4-.7 0-1.2.2-1.7.6-.4.4-.7.9-.7 1.5s.2 1 .5 1.4c.4.3.9.6 1.5.8.4.1.7.2.8.3.3.1.5.3.5.5 0 .3-.3.4-.8.4-.6 0-1.1-.3-1.3-.9l-1.5.9c.2.5.5.9 1 1.2.5.3 1.1.5 1.8.5.8 0 1.4-.2 1.9-.6.5-.4.7-.9.7-1.6 0-.3-.1-.6-.2-.9-.2-.4-.4-.6-.6-.7zm.5.6c-.1-.2-.3-.5-.5-.6-.2-.2-.5-.3-.7-.3-.2-.1-.5-.2-.8-.3-.5-.1-.8-.3-.9-.4-.2-.1-.2-.2-.2-.4 0-.1.1-.2.2-.3.1-.1.3-.1.5-.1.5 0 .8.2 1.1.7l1.4-.8c-.2-.5-.6-.9-1-1.1-.4-.3-.9-.4-1.5-.4-.7 0-1.2.2-1.7.6-.4.4-.7.9-.7 1.5s.2 1 .5 1.4c.4.3.9.6 1.5.8.4.1.7.2.8.3.3.1.5.3.5.5 0 .3-.3.4-.8.4-.6 0-1.1-.3-1.3-.9l-1.5.9c.2.5.5.9 1 1.2.5.3 1.1.5 1.8.5.8 0 1.4-.2 1.9-.6.5-.4.7-.9.7-1.6-.1-.5-.2-.8-.3-1zm2.6 1.2v-1h2.3v-1.6h-2.3v-.9H20v-1.6h-4.3v6.7H20v-1.6h-2.6zm9.1-4.3c-.7-.7-1.5-1-2.5-1s-1.8.3-2.5 1-1 1.5-1 2.5.3 1.8 1 2.5 1.5 1 2.5 1 1.8-.3 2.5-1 1-1.5 1-2.5-.3-1.8-1-2.5zm-1.2 3.9c-.4.3-.8.5-1.3.5s-1-.2-1.3-.5c-.3-.3-.5-.8-.5-1.3s.2-1 .5-1.3c.3-.3.8-.5 1.3-.5s1 .2 1.3.5c.3.3.5.8.5 1.3s-.1.9-.5 1.3zm1.2-3.9c-.7-.7-1.5-1-2.5-1s-1.8.3-2.5 1-1 1.5-1 2.5.3 1.8 1 2.5 1.5 1 2.5 1 1.8-.3 2.5-1 1-1.5 1-2.5-.3-1.8-1-2.5zm-1.2 3.9c-.4.3-.8.5-1.3.5s-1-.2-1.3-.5c-.3-.3-.5-.8-.5-1.3s.2-1 .5-1.3c.3-.3.8-.5 1.3-.5s1 .2 1.3.5c.3.3.5.8.5 1.3s-.1.9-.5 1.3zm-7.9.4v-1h2.3v-1.6h-2.3v-.9H20v-1.6h-4.3v6.7H20v-1.6h-2.6zm-2.6-1.2c-.1-.2-.3-.5-.5-.6-.2-.2-.5-.3-.7-.3-.2-.1-.5-.2-.8-.3-.5-.1-.8-.3-.9-.4-.2-.1-.2-.2-.2-.4 0-.1.1-.2.2-.3.1-.1.3-.1.5-.1.5 0 .8.2 1.1.7l1.4-.8c-.2-.5-.6-.9-1-1.1-.4-.3-.9-.4-1.5-.4-.7 0-1.2.2-1.7.6-.4.4-.7.9-.7 1.5s.2 1 .5 1.4c.4.3.9.6 1.5.8.4.1.7.2.8.3.3.1.5.3.5.5 0 .3-.3.4-.8.4-.6 0-1.1-.3-1.3-.9l-1.5.9c.2.5.5.9 1 1.2.5.3 1.1.5 1.8.5.8 0 1.4-.2 1.9-.6.5-.4.7-.9.7-1.6-.1-.5-.2-.8-.3-1z" style="fill:#e1deef"/><path d="M26.6 4.5H10.8C8.7 4.5 7 6.2 7 8.2v11.2c0 2.1 1.7 3.8 3.8 3.8h15.8c2.1 0 3.8-1.7 3.8-3.8V8.2c-.1-2-1.8-3.7-3.8-3.7zm-18.5 15V8.2c0-1.5 1.2-2.7 2.6-2.7h15.9c1.5 0 2.7 1.2 2.7 2.7v11.2c0 1.5-1.2 2.7-2.7 2.7H10.7c-1.5 0-2.6-1.1-2.6-2.6z" class="st1"/><path d="M14.8 14.5c-.1-.2-.3-.5-.5-.6-.2-.2-.5-.3-.7-.3-.2-.1-.5-.2-.8-.3-.5-.1-.8-.3-.9-.4-.2-.1-.2-.2-.2-.4 0-.1.1-.2.2-.3.1-.1.3-.1.5-.1.5 0 .8.2 1.1.7l1.4-.8c-.2-.5-.6-.9-1-1.1-.4-.3-.9-.4-1.5-.4-.7 0-1.2.2-1.7.6-.4.4-.7.9-.7 1.5s.2 1 .5 1.4c.4.3.9.6 1.5.8.4.1.7.2.8.3.3.1.5.3.5.5 0 .3-.3.4-.8.4-.6 0-1.1-.3-1.3-.9l-1.5.9c.2.5.5.9 1 1.2.5.3 1.1.5 1.8.5.8 0 1.4-.2 1.9-.6.5-.4.7-.9.7-1.6-.1-.5-.2-.8-.3-1zm2.6 1.2v-1h2.3v-1.6h-2.3v-.9H20v-1.6h-4.3v6.7H20v-1.6h-2.6zm9.1-4.3c-.7-.7-1.5-1-2.5-1s-1.8.3-2.5 1-1 1.5-1 2.5.3 1.8 1 2.5 1.5 1 2.5 1 1.8-.3 2.5-1 1-1.5 1-2.5-.3-1.8-1-2.5zm-1.2 3.9c-.4.3-.8.5-1.3.5s-1-.2-1.3-.5c-.3-.3-.5-.8-.5-1.3s.2-1 .5-1.3c.3-.3.8-.5 1.3-.5s1 .2 1.3.5c.3.3.5.8.5 1.3s-.1.9-.5 1.3z" class="st3"/><path d="M26.6 5.5H10.7c-1.5 0-2.6 1.2-2.6 2.7v11.2c0 1.5 1.2 2.7 2.6 2.7h15.9c1.5 0 2.7-1.2 2.7-2.7V8.2c0-1.5-1.3-2.7-2.7-2.7zM14.3 16.9c-.5.4-1.1.6-1.9.6-.7 0-1.3-.1-1.8-.5-.5-.3-.8-.7-1-1.2l1.5-.9c.3.6.7.9 1.3.9.5 0 .8-.1.8-.4 0-.2-.2-.4-.5-.5-.1-.1-.4-.1-.8-.3-.6-.2-1.1-.4-1.5-.8-.4-.3-.5-.8-.5-1.4 0-.6.2-1.1.7-1.5.4-.4 1-.6 1.7-.6.6 0 1.1.1 1.5.4.4.3.8.6 1 1.1l-1.4.8c-.2-.5-.6-.7-1.1-.7-.2 0-.4 0-.5.1-.1.1-.2.2-.2.3 0 .1.1.3.2.4.2.1.5.2.9.4.3.1.6.2.8.3.2.1.4.2.7.3.2.2.4.4.5.6.1.2.2.5.2.9.1.8-.1 1.3-.6 1.7zm5.7.4h-4.3v-6.7H20v1.6h-2.6v.9h2.3v1.6h-2.3v1H20v1.6zm6.5-.9c-.7.7-1.5 1-2.5 1s-1.8-.3-2.5-1-1-1.5-1-2.5.3-1.8 1-2.5 1.5-1 2.5-1 1.8.3 2.5 1 1 1.5 1 2.5-.3 1.9-1 2.5z" class="st3"/><path d="M14.8 14.5c-.1-.2-.3-.5-.5-.6-.2-.2-.5-.3-.7-.3-.2-.1-.5-.2-.8-.3-.5-.1-.8-.3-.9-.4-.2-.1-.2-.2-.2-.4 0-.1.1-.2.2-.3.1-.1.3-.1.5-.1.5 0 .8.2 1.1.7l1.4-.8c-.2-.5-.6-.9-1-1.1-.4-.3-.9-.4-1.5-.4-.7 0-1.2.2-1.7.6-.4.4-.7.9-.7 1.5s.2 1 .5 1.4c.4.3.9.6 1.5.8.4.1.7.2.8.3.3.1.5.3.5.5 0 .3-.3.4-.8.4-.6 0-1.1-.3-1.3-.9l-1.5.9c.2.5.5.9 1 1.2.5.3 1.1.5 1.8.5.8 0 1.4-.2 1.9-.6.5-.4.7-.9.7-1.6-.1-.5-.2-.8-.3-1zm2.6 1.2v-1h2.3v-1.6h-2.3v-.9H20v-1.6h-4.3v6.7H20v-1.6h-2.6zm9.1-4.3c-.7-.7-1.5-1-2.5-1s-1.8.3-2.5 1-1 1.5-1 2.5.3 1.8 1 2.5 1.5 1 2.5 1 1.8-.3 2.5-1 1-1.5 1-2.5-.3-1.8-1-2.5zm-1.2 3.9c-.4.3-.8.5-1.3.5s-1-.2-1.3-.5c-.3-.3-.5-.8-.5-1.3s.2-1 .5-1.3c.3-.3.8-.5 1.3-.5s1 .2 1.3.5c.3.3.5.8.5 1.3s-.1.9-.5 1.3z" class="st1"/><path d="M25.8 13.9c0 .5-.2 1-.5 1.3-.4.3-.8.5-1.3.5s-1-.2-1.3-.5c-.3-.3-.5-.8-.5-1.3s.2-1 .5-1.3c.3-.3.8-.5 1.3-.5s1 .2 1.3.5c.4.4.5.8.5 1.3z" class="st3"/></svg>