<svg xmlns="http://www.w3.org/2000/svg" xml:space="preserve" id="socialmediapayed" x="0" y="0" style="enable-background:new 0 0 40.2 29.4" version="1.1" viewBox="0 0 40.2 29.4"><style>.st0{fill:#ea5d7b}.st1{fill:#e1deef}.st2{fill:#503e90}</style><path d="M31.1 6.9c-.3-.7-.8-1.3-1.5-1.6.7-.3 1.3-.8 1.6-1.5.3.7.8 1.3 1.5 1.6-.7.3-1.3.9-1.6 1.5zm-.9 16c-.1.2-.2.4-.2.6 0 .1 0 .2-.1.4 0-.1 0-.2.1-.4 0-.2.1-.4.2-.6zm2.1 1.4c.2.3.2.7.2 1.1-.1 1.9-1.8 3.4-3.7 3.4h-2c2.7-.4 3.4-2.1 3.9-5.2.1-.6.7-1.2 1.3-1.8l.8-.8 2.3-2.9 1.4.8-4.2 5.4z" class="st0"/><path d="M18.5 28.3c-3.8-.5-7.9-2.7-9.9-6 2.8 2.7 6.3 4.5 9.9 6z" class="st1"/><path d="M19.4 28.3z" class="st2"/><path d="m20.8 27.4-.8.8c.3-.2.6-.5.8-.8zm4.4.9c1.4 0 2.4-.2 3.1-.7-.7.5-1.7.7-3.1.7H20h5.2zm4.8-4.8c0-.2.1-.4.2-.6-.1.2-.1.4-.2.6 0 .1 0 .2-.1.4.1-.1.1-.3.1-.4zm3.9-4.9-1.6 2 1.6-2z" class="st1"/><path d="M19.4 28.3zm0 0zm-.9 0c-3.8-.5-7.9-2.7-9.9-6 2.8 2.7 6.3 4.5 9.9 6z" class="st2"/><path d="M20.4 10.9c-.1-.2-.3-.4-.6-.5-.2-.1-.5-.2-.7-.2h-5.8c-.3 0-.5.1-.7.2-.2.1-.3.2-.4.3-.3.3-.4.7-.4 1.1v5.8c0 .7.5 1.3 1.1 1.5.1 0 .3.1.4.1h5.8c.2 0 .3 0 .4-.1.7-.2 1.1-.8 1.1-1.5v-5.8c.1-.3 0-.6-.2-.9zm-4.2 6.6c-1.6 0-2.8-1.3-2.8-2.8 0-1.6 1.3-2.8 2.8-2.8s2.8 1.3 2.8 2.8c.1 1.6-1.2 2.8-2.8 2.8z" class="st0"/><path d="M26 6.4v.3h2.9v2h-2.6v9.6h-3.1V8.8h-2v-2h2v-.4c0-1.5.8-3.4 1.7-4.2.9-.8 2.4-1.3 4-1.3v2.6c-1.5.2-2.9.6-2.9 2.9z" class="st1"/><path d="M34.5 18c-.1 0-9.8-.2-14 7.6 0-.3.1-.5.1-.8.4-2.2 1.3-5 3.4-5.9h2.9V9.4h2.6V6.1h-2.9c.1-1.7 1.2-1.9 2.6-2h.3V.4h-.3c-1.8-.1-3.6.4-4.7 1.4-1 .9-1.8 2.8-1.9 4.4h-2.1v3.2h2v9.5c-.9.6-1.5 1.7-2 2.8-.5 1.4-.8 2.9-1 4.5-.3-3.3-1.3-5.2-2.1-6.1H19c.2 0 .5 0 .7-.1 1-.3 1.8-1.3 1.8-2.3v-5.8c0-.5-.2-1-.4-1.4-.2-.3-.6-.6-.9-.8-.3-.2-.7-.3-1.1-.3h-5.8c-.4 0-.8.1-1.2.3H12c-.2.1-.4.3-.6.5-.4.5-.6 1.1-.6 1.7v5.8c0 1.1.7 2.1 1.7 2.3.2.1.5.1.7.1h2.9c.5.4 2.2 2.4 2.4 7.1-5.1-8-13.3-8.6-13.4-8.6h-.6l.3.4c1.2 1.4 1.9 3.6 2 3.9 0 4.1 2.2 6.2 6.3 6.2l6.4-.1h5.4c.6 0 1.1 0 1.5-.1 1-.2 1.7-.5 2.3-1 .4-.3.6-.8.9-1.3.1-.3.2-.5.3-.8.2-.6.3-1.3.4-2.1 0-.2.2-.5.3-.7.1-.2.2-.3.4-.5l.2-.2.4-.4c.2-.1.3-.3.4-.4l.4-.4 2.3-2.9.1-.1-.3-.1zM21.1 8.8v-2h2.1v-.4c0-1.1.4-2.5 1-3.4.2-.2.3-.5.5-.6l.2-.2c.3-.3.7-.5 1.2-.8.2-.1.3-.1.5-.2.3-.1.7-.2 1-.2h1.3v2.6c-.8.1-1.6.2-2.2.8-.4.3-.6.8-.7 1.6v.7h2.9v2h-2.6v9.6h-3.1V8.8h-2.1zm-9.3 8.8v-5.8c0-.4.2-.8.4-1.1.1-.1.2-.2.4-.3.2-.1.5-.2.7-.2h5.8c.2 0 .5.1.7.2.2.1.4.3.6.5.2.3.3.6.3.9v5.8c0 .7-.5 1.3-1.1 1.5-.1 0-.2 0-.2.1h-6c-.2 0-.3 0-.5-.1h-.1c-.1 0-.3-.1-.4-.2-.4-.3-.6-.8-.6-1.3zm1.6 10.9c-3.8 0-5.8-2-5.8-5.8v-.1c0-.1-.6-2.1-1.7-3.6 2 .3 8.7 1.8 12.9 9 0 .1.1.2.1.2 0 .1.1.2.2.2h-5.7zM30.9 22l-.2.2c-.1.1-.2.3-.4.5-.1.1-.1.2-.2.3-.1.2-.2.4-.2.6 0 .1 0 .2-.1.4 0 .1 0 .2-.1.3 0 .2-.1.4-.1.7 0 .2-.1.4-.1.6 0 .1 0 .2-.1.2 0 .1-.1.2-.1.3-.1.4-.3.8-.6 1l-.2.2c-.1.1-.3.2-.4.4-.7.5-1.7.7-3.1.7h-5v-.1l.8-.8c1.9-1.8 4-3.5 6.2-4.8 1.1-.7 2.2-1.5 3.5-1.8-2.2-.1-4.3 1.1-6 2.4-.7.5-1.3 1-1.9 1.5-.6.5-1.2 1-1.8 1.6.6-1.2 1.4-2.3 2.2-3.2l.4-.4c.3-.3.6-.5.9-.8.3-.2.6-.5.9-.7 3.3-2.2 7.1-2.5 8.5-2.6l-1.6 2c-.2.2-.5.5-.7.8l-.5.5z" class="st2"/><path d="m33.9 18.6-1.6 2c-.2.2-.5.5-.7.8l-.6.6-.2.2c-.1.1-.2.3-.4.5-.1.1-.1.2-.2.3-.1.2-.2.4-.2.6 0 .1 0 .2-.1.4 0 .1 0 .2-.1.3 0 .2-.1.4-.1.7 0 .2-.1.4-.1.6 0 .1 0 .2-.1.3 0 .1 0 .2-.1.3-.1.4-.3.8-.6 1l-.2.2c-.1.1-.3.2-.4.4-.7.5-1.7.7-3.1.7H20v-.1l.8-.8c1.9-1.8 4-3.5 6.2-4.8 1.1-.7 2.2-1.5 3.5-1.8-2.2-.1-4.3 1.1-6 2.4-.7.5-1.3 1-1.9 1.5-.6.5-1.2 1-1.8 1.6.6-1.2 1.4-2.3 2.2-3.2l.4-.4c.3-.3.6-.5.9-.8.3-.2.6-.5.9-.7 3.5-2.3 7.3-2.7 8.7-2.8zm-15 9.7c0-.1-.1-.2-.1-.2-4.2-7.2-11-8.7-12.9-9 1.1 1.5 1.7 3.5 1.7 3.6v.1c0 3.9 1.9 5.8 5.8 5.8H19c0-.2-.1-.2-.1-.3zm-10.3-6c2.9 2.7 6.3 4.5 9.9 6-3.8-.5-7.9-2.6-9.9-6z" class="st1"/><path d="M16.2 11.9c-1.6 0-2.8 1.3-2.8 2.8 0 1.6 1.3 2.8 2.8 2.8s2.8-1.3 2.8-2.8c.1-1.6-1.2-2.8-2.8-2.8zm0 4.8c-1.1 0-2-.9-2-2s.9-2 2-2 2 .9 2 2-.9 2-2 2z" class="st2"/></svg>