<svg xmlns="http://www.w3.org/2000/svg" xml:space="preserve" id="socialmediapayed" x="0" y="0" style="enable-background:new 0 0 40.2 29.4" version="1.1" viewBox="0 0 40.2 29.4"><style>.st1{fill:#503e90}.st2{fill:#ea5d7b}</style><path d="M24.1 6.4v.3h3v2.1h-2.6v9.9h-3.2V8.8h-2.1V6.7h2.1v-.3c0-1.5.8-3.5 1.8-4.4.9-.8 2.5-1.3 4.1-1.3v2.7c-1.6.1-3.1.6-3.1 3z" style="fill:#e1deef"/><path d="M25 18.9zm5.7 5h-6c.5-.2 1-.7 1-1.3v-2.5c0-.5-.2-.9-.6-1.1V9.4h2.6V6.1h-3c.1-1.8 1.3-2 2.7-2.1h.3V.1h-.3c-1.9-.1-3.7.4-4.8 1.4-1 .9-1.9 2.9-2 4.5h-2.1v3c-.1 0-.2-.1-.2-.1-.4-.2-.7-.3-1.1-.3h-6c-.4 0-.8.1-1.2.3l-.2.1c-.2.1-.4.3-.6.5-.4.5-.7 1.1-.7 1.7v6c0 .6.2 1.1.5 1.5H6c-.8 0-1.4.6-1.4 1.4v2.5c0 .8.6 1.4 1.4 1.4h6c-.6.2-1 .7-1 1.3v2.5c0 .8.6 1.4 1.4 1.4h18.3l.6-.3c.3-.3.5-.7.5-1.1v-2.5c.3-.7-.4-1.4-1.1-1.4zM7 23.1h-.9c-.3 0-.5-.2-.5-.5v-2.5c0-.3.2-.5.5-.5H7c-.4 1.1-.4 2.4 0 3.5zm2.1 0H7.3c.4-1.1.4-2.4 0-3.5H9c-.3 1.1-.3 2.4.1 3.5zm15.6-.5c0 .3-.2.5-.5.5h-.8c.4-1.1.4-2.4 0-3.5h.8c.3 0 .5.2.5.5v2.5zM19.1 6.7h2.1v-.3c0-1.5.8-3.5 1.8-4.4.9-.8 2.5-1.3 4.1-1.3v2.7c-1.5.1-3 .5-3 3v.3h3v2.1h-2.6v9.9h-3.2V8.8h-2.1V6.7zm4 16.4h-1.6c.4-1.1.3-2.4-.1-3.5h1.7c-.4 1.1-.4 2.4 0 3.5zm-2.1 0h-1.6c.4-1.1.3-2.4-.1-3.5H21c-.3 1.1-.3 2.3 0 3.5zm-.4-13.7v9.3h-1.5c.3-.4.5-1 .5-1.5v-6c0-.5-.2-1-.4-1.4-.1-.1-.2-.3-.3-.4h1.7zM19 23.1h-1.5c.4-1.1.3-2.3-.1-3.5H19c-.3 1.1-.3 2.3 0 3.5zM9.5 11.2c0-.4.2-.8.4-1.1.1-.1.3-.2.4-.3.2-.1.5-.2.7-.2h6c.2 0 .5.1.7.2.2.1.4.3.6.5.2.3.3.6.3.9v6c0 .7-.4 1.2-1 1.5h-.1c-.2 0-.3.1-.5.1h-6c-.2 0-.3 0-.5-.1h-.3c-.5-.3-.9-.8-.9-1.5v-6zm7.6 11.9h-1.7c.4-1.1.4-2.3 0-3.4v-.1h1.8v.1c-.4 1.1-.5 2.3-.1 3.4zm-5.9 0H9.4c.4-1.1.4-2.4 0-3.5h1.8v.1c-.4 1.1-.4 2.3 0 3.4zm.3 0c.4-1.1.4-2.3 0-3.4v-.1H13c-.3 1.1-.2 2.5.1 3.5h-1.6zm2 5.2h-.8c-.3 0-.5-.2-.5-.5v-2.5c0-.3.2-.5.5-.5h.8c-.4 1.2-.4 2.4 0 3.5zm.1-8.7H15v.1c-.4 1.1-.4 2.3 0 3.4h-1.4c.3-1 .3-2.4 0-3.5zm1.9 8.7h-1.7c.4-1.1.4-2.4 0-3.5h1.7c-.3 1.2-.3 2.4 0 3.5zm2.2 0h-1.8c.4-1.1.4-2.4 0-3.5h1.8c-.4 1.2-.4 2.4 0 3.5zm1.9 0H18c.4-1.1.4-2.4 0-3.5h1.7c-.4 1.2-.4 2.4-.1 3.5zm1.9 0H20c.4-1.1.4-2.4-.1-3.5h1.5c-.3 1.2-.3 2.4.1 3.5zm2.1 0h-1.7c.4-1.1.3-2.4-.1-3.5h1.8c-.4 1.2-.4 2.4 0 3.5zm1.9 0H24c.4-1.1.3-2.4-.1-3.5h1.6c-.3 1.2-.4 2.4 0 3.5zm2 0h-1.6c.4-1.1.3-2.4-.1-3.5h1.7c-.3 1.2-.4 2.4 0 3.5zm2 0h-1.6c.4-1.1.4-2.4-.1-3.5h1.7c-.3 1.2-.3 2.4 0 3.5zm1.7-.5c0 .2-.2.4-.4.5H30c.4-1.1.4-2.4 0-3.5h.7c.3 0 .5.2.5.5v2.5z" class="st1"/><path d="M18.4 10.3c-.2-.2-.4-.4-.6-.5-.2-.1-.5-.2-.7-.2h-6c-.2 0-.5.1-.7.2-.2.1-.4.2-.5.3-.3.3-.4.7-.4 1.1v6c0 .6.4 1.2.9 1.5h.3c.1 0 .3.1.5.1h6c.2 0 .3 0 .5-.1.6-.2 1-.8 1-1.5v-6c0-.3-.1-.7-.3-.9zm-4.3 6.8c-1.6 0-2.9-1.3-2.9-2.9 0-1.6 1.3-2.9 2.9-2.9 1.6 0 2.9 1.3 2.9 2.9 0 1.6-1.3 2.9-2.9 2.9z" class="st2"/><path d="M14.1 11.3c-1.6 0-2.9 1.3-2.9 2.9 0 1.6 1.3 2.9 2.9 2.9 1.6 0 2.9-1.3 2.9-2.9 0-1.6-1.3-2.9-2.9-2.9zm0 4.9c-1.1 0-2-.9-2-2s.9-2 2-2 2 .9 2 2-.9 2-2 2z" class="st1"/><path d="M34.1 24.1v3.3c0 .9-.7 1.5-1.5 1.5h-1c.3-.3.5-.7.5-1.1v-2.5c0-.8-.6-1.4-1.4-1.4h-6c.5-.2 1-.7 1-1.3v-2.5c0-.5-.2-.9-.6-1.1h1.7c.9 0 1.5.7 1.5 1.5v2.1h4.3c.8 0 1.5.6 1.5 1.5z" class="st2"/><path d="M21.2 19.2z" class="st1"/><path d="M30.1 6.2c-.3-.8-.9-1.4-1.6-1.8.8-.3 1.4-.9 1.8-1.6.3.8.9 1.4 1.6 1.8-.8.3-1.5.9-1.8 1.6z" class="st2"/></svg>