<svg xmlns="http://www.w3.org/2000/svg" xml:space="preserve" id="increase" x="0" y="0" style="enable-background:new 0 0 40.2 29.4" version="1.1" viewBox="0 0 40.2 29.4"><style>.st0{fill:#ea5d7b}.st1{fill:#503e90}</style><path d="M35.2 5.3C34.8 4.3 34 3.5 33 3c1-.4 1.8-1.2 2.3-2.2.4 1 1.2 1.8 2.2 2.3-1 .4-1.8 1.2-2.3 2.2z" class="st0"/><path d="M30.2 3.1H7.4c-1.5 0-2.8 1.2-2.8 2.8v15.6c0 1.5 1.2 2.8 2.8 2.8h3.4c.1 1.1.4 2.1 1.2 2.7 1.1 1 2.5 1.1 3.2 1.1h.4l1.3-.1-1.2-.6c-1.6-.8-1.2-2.4-1-3.1h15.5c1.5 0 2.8-1.2 2.8-2.8V5.9c0-1.5-1.2-2.8-2.8-2.8zm2 18.4c0 1.1-.9 2-2 2h-16l-.1.2c-.4.8-.6 2.4.3 3.5-.6-.1-1.4-.3-1.9-.8-.6-.6-.9-1.4-.9-2.5v-.4H7.4c-1.1 0-2-.9-2-2V5.9c0-1.1.9-2 2-2h22.8c1.1 0 2 .9 2 2v15.6z" class="st1"/><path d="M30.2 3.9H7.4c-1.1 0-2 .9-2 2v15.6c0 1.1.9 2 2 2h4.1v.4c0 1.1.3 1.9.9 2.5.6.5 1.3.7 1.9.8-.9-1.1-.6-2.7-.3-3.5l.1-.2h16c1.1 0 2-.9 2-2V5.9c.1-1.1-.8-2-1.9-2z" style="fill:#e1deef"/><path d="M29.5 11.9c-.9 0-1.7.5-2.6.7-.5.1-1 .1-1.5-.2-.4-.3-.7-.6-1.1-.8-.3-.2-.7-.2-1.1-.1-.9.2-1.6.7-2.4 1.1-1.3.7-3 .5-4.2-.2-.8-.5-1.5-1.1-2.3-1.4-1.6-.6-3.5-.2-5.1.7 1.4-1.1 3.4-1.8 5.3-1.2.9.3 1.7.9 2.4 1.3 1.1.6 2.4.7 3.6.2 1-.5 2.1-1.2 3.4-1.1.7 0 1.4.8 1.8 1.1.3.2.7.3 1.1.2.9 0 1.8-.5 2.7-.3zM22.2 15c-1 .6-2 1.4-3.2 1.5-.6.1-1.3-.1-1.9-.3-1.1-.4-1.9-1.3-3-1.6-1.6-.5-3.3-.1-4.9.7 1.3-1.2 3.3-1.8 5.1-1.4 1.7.5 2.8 2.1 4.7 2 1.1.1 2.2-.6 3.2-.9zm0 3.4c-1 .6-2 1.4-3.2 1.5-.6.1-1.3-.1-1.9-.3-1.1-.4-1.9-1.3-3-1.6-1.6-.5-3.3-.1-4.9.6 1.3-1.2 3.3-1.8 5.1-1.4 1.7.5 2.8 2.1 4.7 2 1.1.2 2.2-.5 3.2-.8zm7.3-9.6c-.9 0-1.7.5-2.6.7-.5.1-1 .1-1.5-.2-.4-.3-.7-.6-1.1-.8-.3-.2-.7-.2-1.1-.1-.9.2-1.6.7-2.4 1.1-1.3.7-3 .5-4.2-.2-.8-.5-1.5-1.1-2.3-1.4-1.6-.6-3.5-.2-5.1.7 1.4-1.1 3.4-1.8 5.3-1.2.9.3 1.7.9 2.4 1.3 1.1.6 2.4.7 3.6.2 1-.5 2.1-1.2 3.4-1.1.7 0 1.4.7 1.8 1.1.3.2.7.3 1.1.2.9-.1 1.8-.5 2.7-.3z" class="st1"/><path d="M5 24.2c-1.2 0-2.1-.9-2.1-2.3V5.8c0-1.4 1-2.5 2.2-2.5h1.4S4.7 4.2 4.7 6v16s.3 2.1 2.2 2.4H5zm33-5.4v6.5c0 .4-.3.8-.8.8h-6.9c-.5.2-1.2.9-.9 2.7-.5-.5-1.1-1.3-1.1-2.3v-.4h-2.2c-.4 0-.8-.3-.8-.8v-6.5c0-.4.3-.8.8-.8h11c.6.1.9.4.9.8z" class="st0"/></svg>