<svg xmlns="http://www.w3.org/2000/svg" xml:space="preserve" id="webdevp" x="0" y="0" style="enable-background:new 0 0 40.2 29.4" version="1.1" viewBox="0 0 40.2 29.4"><style>.webdevst0{fill:#503e90}.webdevst3{fill:#fff}</style><path d="M31.7 3s0-.1 0 0c-.1-.1-.1-.1 0 0-.2-.1-.2-.1-.3-.1-.4-.2-.8-.2-1.3-.2H7.4C5.5 2.6 4 4.1 4 5.9v17c0 1.8 1.5 3.3 3.3 3.3h8.4c-.7.7-1.2 1.6-1.2 2.7v.5h10.6v-.5c0-1.1-.5-2-1.2-2.7h6.2c.2 0 .5 0 .7-.1h-.1c.1 0 .2 0 .3-.1.1 0 .2-.1.3-.1.2-.1.3-.2.5-.3.9-.6 1.6-1.6 1.6-2.8v-17c.1-1.2-.6-2.3-1.7-2.8zm.9 19.9c0 1.3-1.1 2.4-2.4 2.4H7.4C6 25.3 5 24.2 5 22.9v-17c0-1.3 1-2.4 2.4-2.4h22.8c1.3 0 2.4 1.1 2.4 2.4v17z" class="webdevst0"/><path d="M36.4 4.9c-.4-1-1.2-1.9-2.2-2.4 1.1-.4 1.9-1.2 2.4-2.2.4 1.1 1.2 1.9 2.2 2.5-1 .3-1.8 1.1-2.4 2.1zm-1.9.6v18.2c0 1.6-1 2.6-2.3 2.6l-1.3-.1h-.1c.1 0 .2 0 .3-.1.1 0 .2-.1.3-.1.2-.1.3-.2.5-.3.9-.6 1.6-1.6 1.6-2.8v-17c0-1.3-.7-2.4-1.8-2.9h-.1c-.5-.3-1-.3-1-.3H32c1.4-.1 2.5 1.2 2.5 2.8z" style="fill:#ea5d7b"/><path d="M25.7 7.1H11.8c-1.3 0-2.4 1.1-2.4 2.4v9.9c0 1.3 1.1 2.4 2.4 2.4h13.9c1.3 0 2.4-1.1 2.4-2.4V9.5C28 8.2 27 7.1 25.7 7.1zm-6.5 7.6c-2.4 2-4.9 3.8-7.7 5.4 2.1-2.3 4.5-4.4 6.9-6.4 2.4-2 4.9-3.8 7.7-5.4l-6.9 6.4zm6.5-7.6H11.8c-1.3 0-2.4 1.1-2.4 2.4v9.9c0 1.3 1.1 2.4 2.4 2.4h13.9c1.3 0 2.4-1.1 2.4-2.4V9.5C28 8.2 27 7.1 25.7 7.1zm-6.5 7.6c-2.4 2-4.9 3.8-7.7 5.4 2.1-2.3 4.5-4.4 6.9-6.4 2.4-2 4.9-3.8 7.7-5.4l-6.9 6.4zm11-11.2H7.4C6 3.5 5 4.6 5 5.9v17c0 1.3 1.1 2.4 2.4 2.4h22.8c1.3 0 2.4-1.1 2.4-2.4v-17c0-1.3-1.1-2.4-2.4-2.4zM29 19.4c0 1.8-1.5 3.3-3.3 3.3H11.8c-1.8 0-3.3-1.5-3.3-3.3V9.5c0-1.8 1.5-3.3 3.3-3.3h13.9c1.8 0 3.3 1.5 3.3 3.3v9.9zM25.7 7.1H11.8c-1.3 0-2.4 1.1-2.4 2.4v9.9c0 1.3 1.1 2.4 2.4 2.4h13.9c1.3 0 2.4-1.1 2.4-2.4V9.5C28 8.2 27 7.1 25.7 7.1zm-6.5 7.6c-2.4 2-4.9 3.8-7.7 5.4 2.1-2.3 4.5-4.4 6.9-6.4 2.4-2 4.9-3.8 7.7-5.4l-6.9 6.4zm6.5-7.6H11.8c-1.3 0-2.4 1.1-2.4 2.4v9.9c0 1.3 1.1 2.4 2.4 2.4h13.9c1.3 0 2.4-1.1 2.4-2.4V9.5C28 8.2 27 7.1 25.7 7.1zm-6.5 7.6c-2.4 2-4.9 3.8-7.7 5.4 2.1-2.3 4.5-4.4 6.9-6.4 2.4-2 4.9-3.8 7.7-5.4l-6.9 6.4zm6.5-7.6H11.8c-1.3 0-2.4 1.1-2.4 2.4v9.9c0 1.3 1.1 2.4 2.4 2.4h13.9c1.3 0 2.4-1.1 2.4-2.4V9.5C28 8.2 27 7.1 25.7 7.1zm-6.5 7.6c-2.4 2-4.9 3.8-7.7 5.4 2.1-2.3 4.5-4.4 6.9-6.4 2.4-2 4.9-3.8 7.7-5.4l-6.9 6.4zm11-11.2H7.4C6 3.5 5 4.6 5 5.9v17c0 1.3 1.1 2.4 2.4 2.4h22.8c1.3 0 2.4-1.1 2.4-2.4v-17c0-1.3-1.1-2.4-2.4-2.4zM29 19.4c0 1.8-1.5 3.3-3.3 3.3H11.8c-1.8 0-3.3-1.5-3.3-3.3V9.5c0-1.8 1.5-3.3 3.3-3.3h13.9c1.8 0 3.3 1.5 3.3 3.3v9.9zM25.7 7.1H11.8c-1.3 0-2.4 1.1-2.4 2.4v9.9c0 1.3 1.1 2.4 2.4 2.4h13.9c1.3 0 2.4-1.1 2.4-2.4V9.5C28 8.2 27 7.1 25.7 7.1zm-6.5 7.6c-2.4 2-4.9 3.8-7.7 5.4 2.1-2.3 4.5-4.4 6.9-6.4 2.4-2 4.9-3.8 7.7-5.4l-6.9 6.4zm11.6 11.4c.1 0 .2 0 .3-.1-.1.1-.2.1-.3.1z" class="webdevst0"/><path d="M25.7 7.1H11.8c-1.3 0-2.4 1.1-2.4 2.4v9.9c0 1.3 1.1 2.4 2.4 2.4h13.9c1.3 0 2.4-1.1 2.4-2.4V9.5C28 8.2 27 7.1 25.7 7.1zm-6.5 7.6c-2.4 2-4.9 3.8-7.7 5.4 2.1-2.3 4.5-4.4 6.9-6.4 2.4-2 4.9-3.8 7.7-5.4l-6.9 6.4zm6.5-7.6H11.8c-1.3 0-2.4 1.1-2.4 2.4v9.9c0 1.3 1.1 2.4 2.4 2.4h13.9c1.3 0 2.4-1.1 2.4-2.4V9.5C28 8.2 27 7.1 25.7 7.1zm-6.5 7.6c-2.4 2-4.9 3.8-7.7 5.4 2.1-2.3 4.5-4.4 6.9-6.4 2.4-2 4.9-3.8 7.7-5.4l-6.9 6.4zm11-11.2H7.4C6 3.5 5 4.6 5 5.9v17c0 1.3 1.1 2.4 2.4 2.4h22.8c1.3 0 2.4-1.1 2.4-2.4v-17c0-1.3-1.1-2.4-2.4-2.4zM29 19.4c0 1.8-1.5 3.3-3.3 3.3H11.8c-1.8 0-3.3-1.5-3.3-3.3V9.5c0-1.8 1.5-3.3 3.3-3.3h13.9c1.8 0 3.3 1.5 3.3 3.3v9.9zM25.7 7.1H11.8c-1.3 0-2.4 1.1-2.4 2.4v9.9c0 1.3 1.1 2.4 2.4 2.4h13.9c1.3 0 2.4-1.1 2.4-2.4V9.5C28 8.2 27 7.1 25.7 7.1zm-6.5 7.6c-2.4 2-4.9 3.8-7.7 5.4 2.1-2.3 4.5-4.4 6.9-6.4 2.4-2 4.9-3.8 7.7-5.4l-6.9 6.4z" style="fill:#e1deef"/><path d="M25.7 7.1H11.8c-1.3 0-2.4 1.1-2.4 2.4v9.9c0 1.3 1.1 2.4 2.4 2.4h13.9c1.3 0 2.4-1.1 2.4-2.4V9.5C28 8.2 27 7.1 25.7 7.1zm-6.5 7.6c-2.4 2-4.9 3.8-7.7 5.4 2.1-2.3 4.5-4.4 6.9-6.4 2.4-2 4.9-3.8 7.7-5.4l-6.9 6.4z" class="webdevst3"/><path d="M25.7 7.1H11.8c-1.3 0-2.4 1.1-2.4 2.4v9.9c0 1.3 1.1 2.4 2.4 2.4h13.9c1.3 0 2.4-1.1 2.4-2.4V9.5C28 8.2 27 7.1 25.7 7.1zm-6.5 7.6c-2.4 2-4.9 3.8-7.7 5.4 2.1-2.3 4.5-4.4 6.9-6.4 2.4-2 4.9-3.8 7.7-5.4l-6.9 6.4zm6.5-7.6H11.8c-1.3 0-2.4 1.1-2.4 2.4v9.9c0 1.3 1.1 2.4 2.4 2.4h13.9c1.3 0 2.4-1.1 2.4-2.4V9.5C28 8.2 27 7.1 25.7 7.1zm-6.5 7.6c-2.4 2-4.9 3.8-7.7 5.4 2.1-2.3 4.5-4.4 6.9-6.4 2.4-2 4.9-3.8 7.7-5.4l-6.9 6.4z" class="webdevst3"/><path d="M25.7 6.2H11.8c-1.8 0-3.3 1.5-3.3 3.3v9.9c0 1.8 1.5 3.3 3.3 3.3h13.9c1.8 0 3.3-1.5 3.3-3.3V9.5c0-1.8-1.5-3.3-3.3-3.3zM28 19.4c0 1.3-1.1 2.4-2.4 2.4H11.8c-1.3 0-2.4-1.1-2.4-2.4V9.5c0-1.3 1.1-2.4 2.4-2.4h13.9C27 7.1 28 8.2 28 9.5v9.9z" class="webdevst0"/><path d="m26.1 8.3-6.9 6.4c-2.4 2-4.9 3.8-7.7 5.4 2.1-2.3 4.5-4.4 6.9-6.4 2.5-2 4.9-3.9 7.7-5.4zm-9.7 2.3c-3.9.8-4.3 4.4-4.3 4.4v-4.4h4.3zm8.6 5.1V20h-4.3c3.9-.8 4.3-4.3 4.3-4.3z" class="webdevst0"/></svg>